<?xml version="1.0" encoding="utf-8"?>
<!-- Generator: Adobe Illustrator 18.0.0, SVG Export Plug-In . SVG Version: 6.00 Build 0)  -->
<!DOCTYPE svg PUBLIC "-//W3C//DTD SVG 1.1//EN" "http://www.w3.org/Graphics/SVG/1.1/DTD/svg11.dtd">
<svg version="1.1" id="Capa_1" xmlns="http://www.w3.org/2000/svg" xmlns:xlink="http://www.w3.org/1999/xlink" x="0px" y="0px"
	 viewBox="0 909 595 236.2" enable-background="new 0 909 595 236.2" xml:space="preserve">
<g>
	<g>
		<g>
			<path fill="#FFFFFF" d="M143.7,1089.5c-0.5-3-3.7-3.3-6.5-3.3c-2.9,0-4.8,1.2-4.8,2.7c0,1.2,1.1,1.9,3,2.1l8.8,1.2
				c4.7,0.7,8.3,2.2,8.3,6.4c0,4.2-3.3,7.7-13.4,7.7c-6.3,0-14.5-0.7-14.5-7.9h7.9c0.1,3.2,3.6,3.7,6.7,3.7c3.3,0,5.5-0.8,5.5-2.8
				c0-1.8-1.6-2.2-4.4-2.6l-6.4-0.9c-4.5-0.6-8.8-1.8-8.8-6.5c0-5.1,4.7-7.2,12.8-7.2c5.3,0,13.2,0.8,13.7,7.3H143.7z"/>
			<path fill="#FFFFFF" d="M175.3,1101h-10.5l-1.9,4.7h-6.7l10.1-22.9h7.5l10.1,22.9h-6.7L175.3,1101z M170,1087.8l-3.6,9.1h7.2
				L170,1087.8z"/>
			<path fill="#FFFFFF" d="M227.8,1091.5c-0.6-3.3-3.5-4.9-6.9-4.9c-6.3,0-7.6,4.6-7.6,7.7c0,3.1,1.3,7.7,7.6,7.7
				c3.2,0,6.3-1.5,6.9-5.1h7.2c-0.8,6.7-6.6,9.4-14.4,9.4c-8.8,0-14.4-3.6-14.4-12.1c0-8.5,5.5-12.1,14.4-12.1
				c5.9,0,13.3,1.4,14.3,9.3H227.8z"/>
			<path fill="#FFFFFF" d="M253.6,1082.2c13.1,0,15.1,7.3,15.1,12.1c0,4.8-2,12.1-15.1,12.1c-13.1,0-15.1-7.3-15.1-12.1
				C238.5,1089.5,240.5,1082.2,253.6,1082.2z M253.6,1102c6,0,8.1-4.2,8.1-7.7c0-3.6-2.1-7.7-8.1-7.7c-6,0-8.1,4.2-8.1,7.7
				C245.5,1097.8,247.6,1102,253.6,1102z"/>
			<path fill="#FFFFFF" d="M297.7,1082.8h9.7v22.9H301v-18.3H301l-7.7,18.3h-5.5l-7.7-18.3H280v18.3h-6.4v-22.9h9.7l7.2,16.5
				L297.7,1082.8z"/>
			<path fill="#FFFFFF" d="M313.7,1082.8h22.7v4.4h-16.1v4.8h15.3v4.2h-15.3v5.3h16.2v4.4h-22.8V1082.8z"/>
			<path fill="#FFFFFF" d="M377.6,1089.5c-0.5-3-3.6-3.3-6.4-3.3c-2.8,0-4.7,1.2-4.7,2.7c0,1.2,1.1,1.9,2.9,2.1l8.7,1.2
				c4.6,0.7,8.2,2.2,8.2,6.4c0,4.2-3.2,7.7-13.2,7.7c-6.2,0-14.3-0.7-14.3-7.9h7.8c0.1,3.2,3.6,3.7,6.6,3.7c3.3,0,5.5-0.8,5.5-2.8
				c0-1.8-1.6-2.2-4.3-2.6l-6.3-0.9c-4.4-0.6-8.7-1.8-8.7-6.5c0-5.1,4.6-7.2,12.6-7.2c5.2,0,13,0.8,13.5,7.3H377.6z"/>
			<path fill="#FFFFFF" d="M390.6,1082.8h6.2v22.9h-6.2V1082.8z"/>
			<path fill="#FFFFFF" d="M427.3,1082.8h20.5v4.4h-14.2v5h13.3v4.4h-13.3v9.2h-6.2V1082.8z"/>
			<path fill="#FFFFFF" d="M467.3,1101h-10.5l-1.9,4.7h-6.7l10.1-22.9h7.5l10.1,22.9h-6.7L467.3,1101z M462,1087.8l-3.6,9.1h7.2
				L462,1087.8z"/>
		</g>
		<path fill-rule="evenodd" clip-rule="evenodd" fill="#FFFFFF" d="M354.1,995.6l-15.6,35.2l-21.1-35.2h-37l-20.9,45.7l-10.6-46.1
			h-33.1c0,0-4.8,0-8.9,1.8c-3.2,1.4-6.1,3.7-6.1,3.7l-31,27.3c-19.2,15.1-52.7,23.8-62,24.2c-44.6,2-53.9-28.4-50.8-42.8
			c8-37.2,65.7-46,95.9-46c14.4,0,26.1,2.8,35.2,5.4l8.8-15.6l-6.4-1.4c-8-1-20.5-3.7-41.7-3.8c-86-0.3-130.1,23.8-143.5,54.8
			c-15.2,34.9,10.4,66.5,82.5,66.5c13.1,0,38.9-1.1,63.2-9.9h23.4l12-10.7h36.3l1.5,11.4h39.6l0-0.3h21.1l16.9-36.9l22.1,36.8
			l34.3,0l29.4-64.2H354.1L354.1,995.6z M200.1,1035.8l19.3-18.4l1.9,17.9L200.1,1035.8L200.1,1035.8z"/>
		<path fill-rule="evenodd" clip-rule="evenodd" fill="#FFFFFF" d="M450.6,995.6h-54.1l-29.4,64.2h54.1
			c43.3,0.4,60.9-16.3,66.7-29.1C494.4,1016.6,488.8,995.6,450.6,995.6L450.6,995.6z M456.2,1026.6c-4.2,16.1-27.9,17.1-36,17.1
			h-9.6l14.2-32.1h9.6C443.1,1011.6,459.6,1013.3,456.2,1026.6L456.2,1026.6z"/>
		<path fill-rule="evenodd" clip-rule="evenodd" fill="#FFFFFF" d="M556.7,995.1l-27,26.9l-9.1-26.4h-33.1l21.6,49l-21.5,21.2h28.3
			c0,0,5.5-0.7,7.8-1.5c2.3-0.8,5.5-4.1,5.5-4.1l64.7-65L556.7,995.1L556.7,995.1z"/>
	</g>
</g>
</svg>
