<?xml version="1.0" encoding="utf-8"?>
<!-- Generator: Adobe Illustrator 18.0.0, SVG Export Plug-In . SVG Version: 6.00 Build 0)  -->
<!DOCTYPE svg PUBLIC "-//W3C//DTD SVG 1.1//EN" "http://www.w3.org/Graphics/SVG/1.1/DTD/svg11.dtd">
<svg version="1.1" id="Capa_1" xmlns="http://www.w3.org/2000/svg" xmlns:xlink="http://www.w3.org/1999/xlink" x="0px" y="0px"
	 viewBox="0 606 595.3 235.9" enable-background="new 0 606 595.3 235.9" xml:space="preserve">
<g>
	<path fill="#FFFFFF" d="M370.6,804.1c1.1-2.2,1.1-8.4-0.7-10.2c-1.5-1.1-3.7-0.7-4.8,0.4c-0.7,1.1-1.1,4-1.1,5.5
		c-0.4,4.8,1.1,9.1,1.8,13.9c0.7,4.8,0.7,10.6,0.4,15.7c0,2.9-2.6,6.6-6.2,6.2c-4.4-0.4-4-7.3-7.3-9.1c-9.9,5.9,1.1,15.7,8.4,15.4
		c4.8-0.4,7.7-3.7,8.8-7.7c1.5-4.8,2.6-9.1,2.2-14.3C372.5,815,371.7,808.5,370.6,804.1 M156.6,801.9c-1.8-2.9-4.8-4.8-7.7-5.5
		c0-0.4-0.4-0.4-0.4-0.7c-0.7-1.1-2.2-1.5-3.3-0.7c-2.9,2.2-6.2,6.6-6.6,11.3c-0.4,2.9,0.4,5.1,2.2,7c3.7,4,10.6,4.8,15,1.1
		c2.2-1.8,2.9-4,2.9-6.6C158.8,806.3,158.1,804.1,156.6,801.9 M129.5,785c2.6,1.8,4,11.7,4,14.3c0,7.7-9.5,8.4-6.2,10.2
		c2.2,1.5,9.1,8,9.9,11c0.4,1.8-0.7,4.8-2.9,4c-4.4-1.1-8.8-8.8-12.4-12.8c-1.8-1.8-4.4-2.9-4.4-2.2c0,0,0,4-0.4,7.3
		c-0.4,4.4,1.5,7-1.1,10.6c-3.3,4.4-6.6-4.4-6.2-7c2.2-11.3,1.8-19.4,2.2-30C112.3,779.9,124.4,781.8,129.5,785 M119.6,789.8
		c-2.2,1.8-1.1,5.1-1.8,8c-0.4,1.8-0.7,6.2,1.8,6.6c4.4,0,8.4-0.7,10.6-4.8c2.2-4.4-1.5-11.3-6.2-11.7
		C122.6,787.6,120.4,788.7,119.6,789.8 M219.5,811.8c-1.5,0.7-4-0.4-4.8-2.2c-0.4-0.4-0.4-1.1-0.7-1.5c0-1.1-0.4-2.6-1.5-3.3
		c-0.7-2.2-1.5-4.4-2.2-7l-0.4-2.6c0-0.4,0-1.1-0.4-1.5c0.4-0.7,0.7-1.5,0.7-2.6l0,0c0-2.2-1.5-4.4-3.7-4.4h-0.4c-0.4,0-0.7,0-1.1,0
		h-0.4c-1.8,0-3.7,0.4-5.9,1.8c-1.1,0.7-4.8,3.7-6.2,6.6c-0.4,0.7-0.4,1.1-0.4,1.8v0.4c-0.4,1.1-0.7,2.2-1.1,3.3l-0.7,1.8l-0.4,0.7
		c-0.7,1.5-1.5,3.3-1.8,5.9c-0.7,6.6,1.5,12.1,6.2,14.3c2.6,1.1,8.4,2.6,12.4-0.4c1.8-1.5,2.9-3.3,3.7-5.1c2.9,2.9,7,4,10.6,2.6
		c1.8-0.7,2.9-3.3,2.2-5.5C223.2,812.1,221.4,811,219.5,811.8 M203.8,815.4c-1.1,0.7-4,0.7-6.2-0.4c-1.1-0.7-1.8-1.8-1.8-3.7
		c0-0.4,0-0.7,0-1.5c0-0.7,0.4-1.8,1.1-2.9l0.4-0.7l1.1-2.6c0.4-0.7,0.7-2.6,1.1-2.6c0.7-0.7,1.1-1.8,1.1-2.9
		c0.7-0.7,1.8-1.5,2.6-2.2l0,0v0.4l0.7,4c0.7,3.3,1.8,5.9,2.6,8.4c-0.4,0.7-0.4,1.5-0.7,2.2C205.3,813.2,204.9,814.7,203.8,815.4
		 M170.5,811c2.9,1.8,9.5,1.5,12.1-0.7s3.3-12.1-1.8-17.9c-2.9-3.7-5.5-4.8-10.2-2.9c-5.5,1.8-7,4-7.3,8.4
		c-0.7,10.6,1.5,19.8,2.2,30.4c0,2.6,0.7,11,6.2,7.7c4-2.2,0.4-9.1,0-12.4C170.5,819.8,171.6,815,170.5,811 M168.3,797.5
		c0.4-3.3,5.5-5.1,8.4-2.6c1.5,1.5,2.6,7,2.6,8.8c-0.4,3.3-3.3,5.9-6.6,2.9C170.1,805.2,167.9,800,168.3,797.5 M152.6,811
		c-2.2,1.8-6.2,1.5-8.4-0.7c-0.7-0.7-0.7-1.5-0.7-2.6v-0.4c0-1.8,1.1-3.7,2.2-5.1h0.4c2.6-1.5,5.1,0.7,6.6,2.9
		C152.6,805.2,155.1,808.8,152.6,811 M251,814c2.2,1.8,7.7,1.5,9.9,0s2.9-9.5-0.7-14.6c-2.2-2.9-4-4-8.4-2.9
		c-4.4,1.1-5.9,2.9-6.2,6.6c-0.7,8.4,0.4,16.1,0.4,24.5c0,2.2,0,8.8,4.8,6.6c3.3-1.5,0.7-7.3,0.4-9.9C251,820.9,252.1,816.9,251,814
		 M329.7,822.4c-1.5,0.4-2.9-0.4-4-2.2c-0.4-0.4-0.4-0.7-0.7-1.1c0-1.1-0.4-1.8-1.1-2.6c-0.4-1.8-1.1-3.7-1.5-5.9l-0.4-2.2
		c0-0.4,0-0.7,0-1.1c0.4-0.7,0.7-1.5,0.7-2.2c0-1.8-1.1-3.7-2.6-3.7h-0.4c-0.4,0-0.7,0-1.1,0h-0.4c-1.5,0-2.9,0.4-4.8,1.1
		c-0.7,0.7-4,2.6-5.1,5.1c-0.4,0.4-0.4,1.1-0.4,1.5c0,0,0,0,0,0.4c-0.4,0.7-0.7,1.8-1.1,2.6l0.4,1.5L307,814
		c-0.7,1.1-1.5,2.6-1.8,4.4c-1.1,5.5,0.7,9.9,4.4,11.7c2.2,1.1,7,2.6,10.2,0c1.5-1.1,2.6-2.6,2.9-4c2.2,2.6,5.5,3.3,8.4,2.2
		c1.5-0.7,2.2-2.6,1.8-4.4C332.9,822.7,331.1,821.6,329.7,822.4 M317.2,824.6c-0.7,0.7-3.3,0.4-5.1-0.4c-1.1-0.4-1.5-1.5-1.5-2.9
		c0-0.4,0-0.7,0-1.1c0-0.7,0.4-1.5,1.1-2.2l0.4-0.7l0.7-2.2c0.4-0.7,0.7-1.8,1.1-2.2c0.4-0.4,0.7-1.5,0.7-2.2
		c0.7-0.4,1.5-1.1,2.2-1.8l0,0v0.4l0.4,3.3c0.4,2.6,1.1,4.8,1.8,7c-0.4,0.7-0.4,1.1-0.7,1.8C318.3,822.7,317.9,823.8,317.2,824.6
		 M288.7,825.3L288.7,825.3v-1.1c0-2.9,0.7-7.3,1.8-11.7v-4v-4.8l0.4-2.6c0-0.7,0.4-1.1,1.1-1.5c0.4-0.4,0.7-0.4,1.5-0.4
		c0.7,0,1.5,1.1,1.5,1.8l-0.4,2.6v0.4l0,0c0.4-0.4,0.7-0.7,1.1-0.7c1.1-0.7,2.2-0.7,3.3-0.4c2.9,0.7,5.1,3.3,5.5,7.3
		c0,0.4,0,1.1-0.4,1.5c-0.4,0.4-0.7,0.7-1.1,0.7h-0.4c-1.1,0-1.8-0.7-1.8-1.5c-0.4-2.6-1.5-4-2.6-4.4h-0.7c-0.7,0.4-1.1,1.1-1.5,1.5
		c-0.7,1.1-1.1,3.3-1.5,4.8l0,0l0,0l-0.4,2.9l-0.7,4c-0.4,1.8-0.7,3.7-0.7,5.1v0.7c0,1.1-0.7,1.8-1.8,1.8h-0.4
		C289.4,827.1,288.7,826.4,288.7,825.3L288.7,825.3L288.7,825.3L288.7,825.3z M282.5,821.3c1.1-0.4,2.6,0.4,2.9,1.8
		c0.4,1.5-0.4,2.9-1.5,3.3c-2.2,0.7-4.8,0-6.6-1.8c-0.4,1.1-1.1,2.2-2.6,3.3c-2.6,1.8-6.6,0.7-8,0c-2.9-1.5-4.4-5.1-3.7-9.5
		c0.4-1.5,0.7-2.6,1.5-3.7l0.4-0.4l0.4-1.1c0.4-0.7,0.4-1.5,0.7-2.2l0,0c0-0.4,0-0.7,0.4-1.1c1.1-1.8,3.3-3.7,4-4
		c1.5-0.7,2.6-1.1,3.7-1.1h0.4c0.4,0,0.4,0,0.7,0l0,0c1.1,0,2.2,1.5,2.2,2.9l0,0c0,0.7-0.4,1.1-0.7,1.8c0,0.4,0,0.7,0,1.1l0.4,1.8
		c0.4,1.8,0.7,3.3,1.1,4.4c0.4,0.4,0.7,1.5,0.7,2.2c0,0.4,0.4,0.7,0.4,1.1C280.3,820.9,281.7,821.6,282.5,821.3 M272.6,823.1
		c0.7-0.4,0.7-1.5,1.5-2.9c0-0.4,0.4-1.1,0.4-1.5c-0.4-1.5-1.1-3.3-1.5-5.5l-0.4-2.2v-0.4l0,0c-0.7,0.4-1.5,1.1-1.8,1.5
		c0,0.7-0.4,1.5-0.7,1.8c-0.4,0.4-0.7,1.1-0.7,1.8l-0.7,1.8l-0.4,0.4c-0.4,0.7-0.7,1.5-0.7,1.8c0,0.4,0,0.7,0,0.7
		c0,1.1,0.4,1.8,1.1,2.2C270,823.5,271.8,823.5,272.6,823.1 M249.9,803c0.4-2.6,4.8-3.7,7-1.8c1.5,1.1,1.8,5.5,1.5,7.3
		c-0.4,2.6-2.9,4.4-5.5,2.2C251.4,809.2,249.5,805.2,249.9,803 M466.9,823.5C466.9,823.5,466.9,823.1,466.9,823.5V822
		c0-3.7,0.7-9.1,1.8-14.6l-0.4-5.1l-0.4-5.9v-3.3c0-0.7,0.4-1.5,1.1-1.8c0.4-0.4,1.1-0.7,1.5-0.7c1.1,0,1.8,1.1,1.8,2.2v2.9v0.7h0.4
		c0.4-0.4,1.1-0.7,1.5-1.1c1.5-0.7,2.6-1.1,4-0.7c3.7,0.7,6.2,4,7,8.8c0,0.7,0,1.1-0.4,1.8c-0.4,0.4-0.7,0.7-1.5,0.7h-0.7
		c-1.1,0-2.2-0.7-2.6-1.8c-0.4-3.3-2.2-4.8-3.3-5.1H476c-0.7,0.4-1.5,1.5-1.5,1.8c-0.7,1.5-1.1,4-1.8,5.9l0,0l0,0v3.7l-0.7,5.1
		c-0.4,2.2-0.7,4.8-0.7,6.2v0.7c0,1.1-0.7,2.2-1.8,2.2h-0.4c-1.1,0-2.2-0.7-2.2-1.8V823.5L466.9,823.5 M459.2,816.5
		c-1.5,0.7-4-0.4-4.8-2.2c-0.4-0.4-0.4-1.1-0.7-1.5c0-1.1-0.4-2.6-1.5-3.3c-0.7-2.2-1.5-4.4-2.2-7l-0.4-2.6c0-0.4,0-1.1-0.4-1.5
		c0.4-0.7,0.7-1.5,0.7-2.6c0-2.2-1.5-4.4-3.7-4.4l0,0c-0.4,0-0.7,0-1.1,0h-0.4c-1.8,0-3.7,0.4-5.9,1.8c-1.1,0.7-4.8,3.7-6.2,6.6
		c-0.4,0.7-0.4,1.1-0.4,1.8v0.4c-0.4,1.1-1.1,2.2-1.5,3.3l-0.7,1.8l-0.4,0.7c-0.7,1.5-1.5,3.3-1.8,5.9c-0.7,6.6,1.5,12.1,6.2,14.3
		c2.6,1.1,8.4,2.6,12.4-0.4c1.8-1.5,2.9-3.3,3.7-5.1c2.9,2.9,7,4,10.6,2.6c1.8-0.7,2.9-3.3,2.2-5.5
		C462.8,816.9,461,815.8,459.2,816.5 M443.4,819.8c-1.1,0.7-4,0.7-6.2-0.4c-1.1-0.4-1.8-1.8-1.8-3.7c0-0.4,0-0.7,0-1.5
		c0-0.8,0.4-1.8,1.1-2.9l0.4-0.7l1.1-2.6c0.4-0.7,0.7-2.6,1.1-2.9c0.7-0.7,1.1-1.8,1.1-2.9c0.7-0.7,1.8-1.5,2.6-2.2l0,0v0.4l0.7,4
		c0.7,3.3,1.8,5.9,2.6,8.4c-0.4,0.7-0.4,1.5-0.7,2.2C444.9,818,444.5,819.1,443.4,819.8 M402.1,823.8l-0.7-0.7
		c-1.5-1.1-2.9-2.2-2.2-11c0.7-8.4,5.9-13.5,7.3-15c1.8-1.5,3.3-2.6,4.4-2.9c1.1-0.4,2.2-0.7,2.9-0.7h0.4c1.1,0.4,2.2,0.7,1.8,1.8
		c0,0,0,1.1-0.7,1.8l0,0l-0.4,0.4c-0.4,0.4-0.7,0.4-1.1,0.4c-0.7,0-1.5,0.4-2.9,1.8l-2.2,2.2c-3.7,4.8-4,6.6-4,7
		c0,0-1.5,3.7-0.7,8.4c0,0.4,1.8,4.4,5.1,3.3l2.6-0.4h1.5h0.7c0.4-0.4,1.5-1.5,2.2-4.8l0,0l0,0c-0.4,0-1.5-0.7-6.6-0.7l0,0
		c0,0-1.5-1.8,0.4-3.7l0.4-0.4c1.8-1.5,15-1.8,15.4-1.8l0,0c0,0,0.4,0.4,0.4,0.7v0.4c0,0.7-0.4,1.8-1.5,2.9h-0.4l-1.5,0.7l-1.1,0.4
		l0,0v0.4c0,2.2,0,3.7-0.4,4l-0.4,0.7c-0.4,1.5-1.5,4-5.5,5.1l-1.1,0.4C409.4,825.3,403.6,825.3,402.1,823.8 M379.4,812.9
		c1.1-2.6,3.3-8.4-0.7-9.9c-4.4-1.5-3.3,5.5-3.3,8.4c0,3.3,0,9.5,1.8,12.1c2.9,4,9.1-0.7,8,5.5c2.2-0.4,4.8,0,6.6,0
		c-2.6-5.1,1.8-13.9,2.2-19.4c0.4-2.2,1.5-8.4-1.1-10.2c-4.8-3.3-4.4,3.3-4.4,5.9c0,3.3-0.7,16.8-5.5,16.8
		C376.9,822.4,380.1,815,379.4,812.9 M371.7,781.8c0.7,0.7,0.7,1.8,0.4,2.6c-0.3,0.8-1.1,1.8-2.2,2.2c-0.7,0.7-1.8,1.1-2.9,1.1
		s-1.8-0.7-2.2-1.8c-0.4-1.5,0.4-2.9,1.5-4c0.4-0.4,1.1-0.7,1.5-1.1c0.7-0.4,1.1-0.4,1.8-0.4C370.6,780.7,371.4,781,371.7,781.8"/>
	<path fill="#FFFFFF" d="M12.4,747.7l-2.9-2.6c-5.9-5.1-12.1-10.2-8.4-49c3.3-36.2,24.1-59.6,30.4-65.9c7-7,13.5-11.7,17.2-11.7
		c4-1.8,9.5-3.7,11.7-2.9l1.8,0.7c4.8,1.5,9.1,3.3,7.7,8.8c0,0.4,0.7,4.4-3.7,8l-0.4,0.4l-1.1,1.1c-1.1,1.1-2.2,1.5-3.7,1.5
		c-1.5,0.4-3.7,0.7-6.2,2.6c-3.7,2.2-6.2,5.1-8.8,8.4c-2.6,2.9-5.5,6.6-5.5,6.6c-15,19.8-16.8,28.5-16.8,30.7c0,0-7,15.4-4.4,36.6
		c0.4,0.4,2.6,7.3,7.7,11.7c6.2,5.1,13.9,2.2,21.2,1.5c5.9-0.7,9.9,0.4,12.8-5.1c1.5-2.6,3.3-7,4.8-13.9c1.1-5.5,0.7-4-5.5-5.1
		c-2.2-0.4-4.8-0.7-8-1.5c-9.5-1.8-12.1,0.4-13.2-7.3c-0.4-3.3-0.4-7.3,1.8-9.1l1.1-0.7c7.7-7,60-7.3,62.2-7.3l0,0
		c0,0,1.5,1.1,1.8,3.3v1.1c0,2.9-1.1,5.1-4.4,8.8c-1.8,2.6-7.7,4.8-11.3,6.2c-4.4,1.5-2.9,1.8-3.3,7c-0.4,7.7-1.1,13.2-2.2,14.6
		l-1.5,2.9c-2.2,5.9-7,17.9-22,21.6l-4.4,1.1C41.3,754.3,19,754.3,12.4,747.7 M379,767.1c-4-11-2.6-24.1-1.1-35.9l1.1-13.5v-44.3
		c0-5.9,4.4-10.6,9.5-10.6h0.4l4-1.1c2.6,0,5.1,1.1,7,3.3c1.9,2.2,2.9,4.8,2.9,7.7c0,0,0,44.3,0,44.6l-0.7,8.8
		c2.6,5.5,4,12.4,3.7,20.5c0,7.3-1.5,15.4-3.7,21.2C394,773.7,386.4,773.7,379,767.1 M390.4,650c-11-0.7-13.9-7.3-16.8-13.9
		l-0.4-2.9c0-2.6,1.5-5.1,3.7-6.2c0.4,0,0.7,0,0.7,0c1.8-3.7,4.4-5.5,7.7-6.2l4,0.7c0.4,0,1.8,0.7,1.8,0.7l5.9,2.2
		c2.2,0.7,3.3,2.6,3.3,6.2c0,0.4,0,0.7,0,1.1c0,6.6-0.7,8.8-2.9,14.3C395.5,648.6,393,650.4,390.4,650 M231.2,632.5
		c-7.7-0.4-9.5-5.1-11.7-9.5l-0.4-2.6c0-1.8,1.1-3.7,2.6-4.4h0.4c1.5-2.6,2.9-4,5.5-4.4l2.9,0.7c0.4,0,1.5,0.4,1.5,0.4l4,1.5
		c1.5,0.7,2.2,1.8,2.2,4.4c0,0.4,0,0.4,0,0.7c0,4.8-0.7,6.2-2.2,9.9C235.3,631.4,233.4,632.5,231.2,632.5 M238.2,756.5
		c-0.7,1.5-2.2,2.2-3.3,2.6h-2.6c-5.9,1.5-13.5-6.6-13.5-6.6c-1.8-3.7-5.5-9.5-5.5-10.2c0-0.4,11.3-49.4,4.8-73.5
		c-2.6-9.9-3.3-13.2-3.3-13.5c0.7-2.2,3.3-3.3,5.5-4.4c5.5-0.7,15.7-2.2,18.7-0.4c2.9,2.2,2.9,9.9,2.9,12.1v1.5
		c0,3.3,0.7,32.6,0,57.1C241.1,730.9,242.9,748.5,238.2,756.5 M285.4,703.1c7.3,2.9,15.4,2.6,23.1,2.9c10.6,0,20.9,0.4,29.3,5.1
		c3.7,2.2,4.8,4.4,5.1,5.9c1.1,5.1-2.9,13.5-10.6,23.1c-8,10.2-15.4,12.4-26.3,12.8c-5.9,0-10.2-0.4-13.9-2.2
		c-6.2-3.3-20.9-20.5-27.8-19.4l-3.3,0.4c-2.9,0.4-5.5,2.2-7,4.4c-1.8,2.9-1.1,6.6,0.4,9.5c5.1,11,24.5,21.2,24.5,21.6
		c8,4,15.7,4.8,22.3,4.4h5.9c17.9-0.4,31.5-4,44.6-20.5c11.7-14.3,16.5-27.1,14.3-37.7c-1.5-7.3-6.2-13.9-13.9-18.3
		c-4.4-2.6-8.8-4.4-13.2-5.5c-9.1-2.6-18.3-2.6-26.7-2.6l-12.1-0.4c-3.3-0.4-5.9-1.8-8-4.8c-3.7-5.1-5.1-12.4-3.3-19.4
		c1.8-6.6,11-16.1,17.6-19.4c4.4-0.7,9.5,0.4,15,1.5c4.8,1.1,9.9,1.8,15,1.8c1.5,0,3.3-0.4,4.8-1.1c5.1-0.4,8.8-4.4,8.8-9.1
		c0-2.6-1.1-4.8-2.9-6.6s-4.4-2.6-7-2.9c-3.3,0-7-0.7-11.3-1.5c-8.8-1.8-19.8-3.7-30.4,0.7l-4.4,1.8c-11,5.1-24.5,19-27.8,31.5
		c-3.3,12.1-0.7,24.9,6.2,34.4C276.2,697.6,280.6,700.9,285.4,703.1 M498.7,652.6c4.4,14.6,1.1,35.1-1.5,52l-1.1,6.6
		c-1.5,8.8-2.6,17.9-3.7,26.7c-1.5,11-2.6,21.6-2.2,31.8c-7.3,7.7-14.3,7.3-21.2-0.4c-0.7-13.9,1.5-28.2,3.3-41.7l1.8-12.8L476,702
		c2.2-14.3,5.1-32.2,1.8-42.4c-2.6-7.7-13.2-16.5-20.9-16.8c-4.4,2.6-5.5,8.8-5.5,17.6v8.8v12.1l-1.5,17.2l-0.7,9.1l0.4,8.8
		c0.7,18.3,1.5,35.5,5.1,52v1.1c-6.2,7.7-13.9,7.3-22.3-0.4c-4-11-5.9-24.5-5.5-41.3l1.1-15.7l0.4-3.7c-1.1-20.9-2.6-42.8-10.2-62.6
		l-0.7-3.7c0-3.3,1.8-6.6,4.8-8c1.1-0.7,2.6-0.7,3.7-0.7l0,0l0.7-0.7c3.3-1.5,7-0.7,9.1,2.2l0.4,0.4l0.4-0.7c2.9-4,6.6-6.6,11-8.4
		l4.4-1.1c0.4,0,0.7-0.4,0.7-0.4C470.9,618.6,493.2,635,498.7,652.6 M113.4,761.6C113.4,761.3,113.1,761.3,113.4,761.6v-5.5
		c0.4-17.2,4-45.4,9.1-70.2l-0.4-24.5l-0.7-28.2l0.7-16.1c0.4-3.7,2.2-6.6,5.1-8.4c2.2-2.2,4.8-2.9,7.3-2.6c5.1,0.7,8.8,5.5,8.4,11
		l-0.4,15v2.6l0.7-0.4c2.2-1.8,4.4-3.7,7-4.8c5.9-3.7,12.1-4.8,18.3-3.7c15.7,3.3,27.8,20.5,30.4,43.9c0.4,2.9-0.4,5.9-1.8,8
		c-1.5,2.2-3.7,3.7-6.6,4l-2.6,0.7c-5.1,0.7-9.9-3.3-10.6-9.1c-1.8-15.7-8.8-24.1-14.6-25.2l-3.7,0.4c-3.7,2.6-6.2,7.3-7.3,9.1
		c-2.9,6.6-6.2,19.4-8,28.9l0,0v0.7l-1.1,17.9l-4,24.5c-1.8,11-4,23.1-4.4,30.7v1.5C124.8,769.7,117.8,769.3,113.4,761.6
		 M587.6,676.4c-7-12.4-18.7-22-31.5-24.5c-0.4-1.1-0.7-2.2-1.5-3.3c-3.3-5.1-9.5-6.6-14.3-2.9c-12.1,9.1-26.3,28.9-28.5,50.1
		c-1.5,12.1,1.5,23.1,8.4,31.5c15.4,19,43.5,22,61.5,6.2c8.4-7.3,12.8-17.6,13.2-28.9C595.6,695.4,593.1,685.9,587.6,676.4
		 M569.7,715.5c-9.5,8-26,6.2-34-3.7c-2.6-2.9-3.7-6.6-3.7-11.3c0-0.7,0-1.5,0-2.6c0.7-6.6,3.7-13.5,7.3-19.8
		c2.2-3.3,5.5-5.1,9.9-5.1c8.4-0.4,16.5,8,20.5,15C571.5,690.3,580.3,706.7,569.7,715.5"/>
</g>
</svg>
