<?xml version="1.0" encoding="utf-8"?>
<!-- Generator: Adobe Illustrator 18.0.0, SVG Export Plug-In . SVG Version: 6.00 Build 0)  -->
<!DOCTYPE svg PUBLIC "-//W3C//DTD SVG 1.1//EN" "http://www.w3.org/Graphics/SVG/1.1/DTD/svg11.dtd">
<svg version="1.1" id="Capa_1" xmlns="http://www.w3.org/2000/svg" xmlns:xlink="http://www.w3.org/1999/xlink" x="0px" y="0px"
	 viewBox="0 909 595 236.2" enable-background="new 0 909 595 236.2" xml:space="preserve">
<g>
	<g>
		<path fill-rule="evenodd" clip-rule="evenodd" fill="#FFFFFF" d="M412,1110.6c0,17.1-13.9,31-31.1,31H214.1c-17.2,0-31-13.9-31-31
			V943.7c0-17.1,13.9-31,31-31h166.9c17.1,0,31.1,13.9,31.1,31V1110.6z"/>
		<g>
			<path fill-rule="evenodd" clip-rule="evenodd" fill="#141524" d="M203,1016c-0.5-11.3,0-22.7,0-34c0-9.8,0-19.6,0-29.4
				c0-2.6-0.3-12,1-14.3c1.2-2,6.9-1.6,9.6-0.6c1.6,0.6,3.4,5.3,4.4,8.7c0.8,2.6,3.8,11,4.5,13.3c1.4,4.2,2.8,8.1,4.2,12.4
				c0.9,2.7,2.2,10.3,5.1,10.6c2,0.2,11.8-34.3,14.5-40.7c1.9-4.5,4.7-4.8,10.1-4.5c4.5-0.2,3.5,33.2,3.5,39c0,6.1,2,33.4,2.3,41.4
				c0.1,2.6,0.4,8.2-1.2,10.5c-1.5,2.1-3.8,1.2-6,1.2c-4.2,0-8.3,0.9-8.7-4.6c-0.3-4.1,0-8.2,0-12.4c0-2.7,1.5-24.4-0.6-23.8
				c-3.2,0.9-11.3,21.6-15,21.9c-4.3,0.3-12.2-17.2-14.5-17.2c-1.8,0-0.1,22.7-0.1,25.2c0,2.2,0.8,9.2-0.6,11
				c-2.1,2.7-8.2,1.7-10.1-0.4C203,1026.9,203.1,1019.2,203,1016z"/>
			<path fill-rule="evenodd" clip-rule="evenodd" fill="#141524" d="M273.9,1003c0.3-1.5,1.2-4.2,1.4-4.8c0-0.1,0-0.1,0-0.1
				c0.4-1.6,1.8-7.7,2.3-9.4c1.3-4.6,3.2-9.3,4.8-14c1.6-5.2,3.2-10.4,5.1-15.5c1.3-3.5,6.7-18,7.5-19.6c1.9-3.5,3.1-4.8,6-1.5
				c3.3,3.7,11.9,25.6,16.5,33.1c2.6,4.2,3.8,9.5,5.8,14c1.4,3.3,2.5,6.8,3.9,10.1c1,2.5,4.4,11.3,5.2,13.4
				c1.3,3.2,6.8,18.1,4.6,19.2c-1.2,1.5-8.5,5.1-11,2.4c-5.5-5.8-7.1-19.9-8.3-23c-2.3-5.5-2.6-7.9-5.3-12.1
				c-1.6-2.5-8.7-1.3-11.5-1.4c-4-0.2-0.7-0.3-4.8-0.2c-4.5,0.1-7.2,1.1-8.1,6c-0.9,4.8-2,9.8-2.5,14.7c-0.4,3.9-0.5,8.4-3.2,11.6
				c-1.9,2.2-10.5,4-11.9,1.7C268.7,1024.8,273.6,1004.3,273.9,1003z M309.6,986.7c1.4-0.9-7.3-24.8-10.6-24.5
				c-2.5,0.3-9.7,17-8.8,21.3c0.3,1.7,0.2,1.4,1.8,1.8c2.3,0.6,5,0.2,7.4,0.4C301.5,986,307.7,987.9,309.6,986.7z"/>
			<path fill-rule="evenodd" clip-rule="evenodd" fill="#141524" d="M351.4,966.1c1.1-5.8,4.7-16.2,9.5-19.8c2.6-2,6.7-1.6,9.8-1.3
				c7.9,0.8,8,8,9,10.4c1,2.4,1.3,4.8,1.7,7.4c0.3,1.9,0.6,3.2,2.6,3.4c2.1,0.2,4.4,0.1,6.5,0c2,0.4,4.3-16.6-3.2-24.9
				c-2.2-2.4-20.8-15.7-37.7-0.3c-2.3,2.1-7.7,12.7-8.7,16c-1,3.4-1.5,7.5-1.8,12c-0.5,5.2-1.1,9.6-1.1,14.8
				c0,10-3.3,32.2,12.5,42.8c0.8,0.6,6.1,2.8,7.2,2.8c2.3,0,4.7,0.1,7,0c2.1-0.2,4.3-1.2,6.2-2.1c2.9-1.2,6.6-4.2,8.4-6.8
				c-0.1,1.1-1.7,7.1,0,8.7c1.3,1.3,9.2,2.4,10.7,0.4c1.6-2.2,1.5-9.1,1.5-10.4c0-4.6,0.3-9.3,0.3-13.9c0-3.6,0.1-6.8,0.1-10.4
				c0-3.2,1.1-10-0.7-11.2c-3-2-9.4-0.8-13.5-0.8c-4,0-8.4,0.4-12.4,0.4c-0.8,0-3.6,1.1-3,5c0.9,6.5,8.2,4,12,4
				c1.5,0,4.3,0.5,5.8,1.8c0.6,0.6,1,1.3,1.3,2.1c4.5,10.7-3.4,17.4-5.7,19.3c-12.5,10.3-21.5-2.8-22.1-5
				C349.9,995.6,349.6,975.8,351.4,966.1z"/>
			<path fill-rule="evenodd" clip-rule="evenodd" fill="#141524" d="M202.9,1116.2c-0.4-1.5-1.3-19.7-1.3-23.3
				c0-5.7-0.9-41.8-0.9-46.6c0-2.3-0.4-4.7,0-7c0.2-1.2,0.7-1.2,2-1.3c1.8-0.1,3.6,0,5.3,0c1.9,0,3.9,1.4,4.8,3.1
				c0.9,1.9,19,47.1,19.5,46.9c0-2.7-1.3-37.8-1.3-40.3c0-2.3,0-4.6,0-6.9c0-0.6,0-1.9,0.6-2.4c0.5-0.4,1.4-0.5,2-0.5
				c0.6,0,4.7-0.6,5.8,0.6c1,1.2,1.1,12.6,1,18.9c-0.2,7.3,0.2,13.5,0.2,20.5c0,9.7-0.1,18.8-0.1,28.5c0,3.5,0.2,10.5-1.4,11.1
				c-2.1,1-6.9,0.8-7.8-1.1c-0.5-1.1-2.1-4.4-2.3-5.1c-0.2-0.6-1.8-4.6-2-5.2c-0.4-1.3-14.2-42.3-15-42.2c-0.7,1.1-0.1,6.8-0.1,9.6
				c0,6.5,0,13.1,0,19.6c0,5.2,0,10.5,0,15.7c0,1.8,0,3.6,0,5.4c0,2.9-1.7,3-4.3,3.2C206.1,1117.5,203.5,1118.2,202.9,1116.2z"/>
			<path fill-rule="evenodd" clip-rule="evenodd" fill="#141524" d="M246.3,1053.5c0-3.5,0-7.1,0-10.6c0-1.6-0.2-5.3,1.5-6.2
				c1.1-0.6,3.6-0.1,4.9-0.1c2.5,0,4.9,0,7.3,0c7,0,14,0,20.9,0c1.6,0,5.2-0.6,6.4,0.7c0.9,0.8,0.7,2.2,0.7,3.4c0,2.9,0,5.7-2.9,5.8
				c-4.4,0.1-11.4,0.1-15.8,0.1c-2.5,0-4.9-0.3-7.4-0.2c-2.6,0.1-4,0.7-4,3.5c0,1.6,0,3.2,0,4.8c0,2,0,4,0,6c0,2.6,0.1,5.1,0.3,7.7
				c7.1,0.8,14.2-0.3,21.3,0c0.7,0,0.5,8.3,0.1,10.4c-0.2,1-0.2,0.8-1.1,0.9c-0.8,0.1-1.6,0-2.4,0c-3.5,0-6.8-0.3-10.3-0.3
				c-1.5,0-3.9-0.7-5.2,0.4c-1.1,0-0.7,3.7-0.7,4.3c0.1,3.8,0.2,7.7,0.1,11.5c0,2.6-0.1,5.2-0.1,7.7c0,0.9-0.2,1.7,0.7,2.2
				c0.7,0.4,6,0.5,7.5,0.7c3.7,0.4,7.4-0.1,11.1,0c1.5,0,8,0.1,8,1.8c0,0.7-0.1,3.8-0.1,4.7c0,0.8,0.3,2.4-0.2,3
				c-0.8,1.1-2.6,0.7-3.7,0.7c-2,0-4,0-6-0.1c-4.1-0.1-8.2-0.2-12.2-0.2c-6.2,0-14.1,2.4-18.5-0.1c-0.2-5-0.4-10-0.4-15
				c0-5.2,0-10.5,0-15.7C246.3,1074.5,246.3,1064,246.3,1053.5z"/>
			<path fill-rule="evenodd" clip-rule="evenodd" fill="#141524" d="M302,1037.9c-2.6,0-6-0.6-8.5,0.2c-1.8,0.6-1.8,2.7-1.9,4.2
				c0,1.4-0.7,3.9,0.6,4.9c1.2,1,3.6,0.4,5,0.3c2.6-0.2,5.1,0.1,7.6,0.1c1.7,0,3.5,0.1,5.2,0.2c1.3,0.1,2.8-0.2,3.7,1
				c0.7,1,0.4,2.5,0.4,3.7c0,6.7-0.4,13.3-0.5,20c-0.1,7-0.3,14-0.3,21c0,5.5,0.5,10.8,0.5,16.3c0,1.7,0,3.4,0,5.1
				c0,1.1-0.5,3.5,0.1,4.4c1,1.5,4.2,0.6,5.7,0.6c0.8,0,3.1,0.3,3.6-0.3c0.7-0.8,0.2-4.1,0.2-5c0-3.5,0.2-7,0.2-10.6
				c0-8,0.5-16.1,0.5-24.2c0-6.8,0.2-13.6,0.2-20.4c0-2.3,0-4.6,0-6.8c0-0.9-0.3-2.6,0.1-3.4c1.1-2.1,6.3-1.4,8.4-1.3
				c3.6,0.2,7.9,0.8,11.6,0.2c1.4-0.2,1.1-1,1.1-2.3c0-1.6,0-3.3,0-4.9c0-0.9,0.3-2.2-0.6-2.9c-1.1-0.9-3.7-0.3-5-0.3
				c-4.2,0-8.4,0-12.6,0C319,1037.9,310.5,1037.9,302,1037.9z"/>
			<path fill-rule="evenodd" clip-rule="evenodd" fill="#141524" d="M393.8,1063.7c0.2,6.3,0,12.6,0,18.9c0,13.2-2.7,19.6-3.3,21.5
				c-1.9,6.6-6.1,10.3-7.2,11.3c-1.3,1.2-2.4,1.8-4,2.5c-1.6,0.7-2.6,1.3-4.3,1.5c-1.4,0.2-2.8,0.3-4.2,0.3c-4.5,0-8.7,0.3-12.7-2.2
				c-3.6-2.3-14.8-11.1-14.3-28.8c0.1-3-0.1-6.1-0.1-9.1c0-3.6-0.1-7.3,0.1-10.9c0.1-1.7,0.3-3.4,0.5-5.1c0.2-1.9,0.8-3.7,1-5.7
				c0.3-2.8,1.6-5.4,2.6-8c0.8-2.4,2.8-4.3,4.1-6.5c0.9-1.6,2-2.7,3.5-3.7c1.4-0.9,2.8-2.5,4.5-2.9c4.7-1.2,11.2-2.6,15.7-1.5
				c8.1,2,11.8,9.8,13,11.7C389.8,1048.6,393.7,1056.4,393.8,1063.7z M360.4,1104.7c1.8,2,4.1,3.7,6.6,3.8c2.8,0.2,5.8,0.8,8.6-0.2
				c1-0.3,1.9-1.5,2.7-2.2c0.9-0.7,1.5-1.6,2.1-2.8c0.7-1.6,1.9-3.1,2.4-4.9c0.5-2,1.3-3.9,1.5-6c0.1-1.4,0.5-2.8,0.6-4.2
				c0.1-1.3,0.2-2.5,0.3-3.8c0.1-2.7,0-5.4,0-8.1c0-2.3-0.1-4.5-0.1-6.8c0-2.6-0.2-9-3-15.2c-1.2-2.7-3.6-4.5-5.8-6.2
				c-2.4-1.9-5-1.6-7.7-1.5c-0.9,0-1.7,0.1-2.6,0.3c-1,0.2-4.2,2.2-5,3.1c-0.7,0.8-1.3,1.4-1.8,2.4c-1,1.8-2.1,4.8-2.4,6.1
				c-0.4,1.4-0.9,2.7-1.1,4.2c-0.6,3.8-0.7,9.5-0.7,11.9c0,4.7,0.3,18.3,0.9,20.3c0.3,0.8,0.4,1.6,0.8,2.4
				C357,1098.4,359.3,1103.6,360.4,1104.7z"/>
		</g>
	</g>
</g>
</svg>
