<?xml version="1.0" encoding="utf-8"?>
<!-- Generator: Adobe Illustrator 18.0.0, SVG Export Plug-In . SVG Version: 6.00 Build 0)  -->
<!DOCTYPE svg PUBLIC "-//W3C//DTD SVG 1.1//EN" "http://www.w3.org/Graphics/SVG/1.1/DTD/svg11.dtd">
<svg version="1.1" id="Capa_1" xmlns="http://www.w3.org/2000/svg" xmlns:xlink="http://www.w3.org/1999/xlink" x="0px" y="0px"
	 viewBox="0 909 595 236.2" enable-background="new 0 909 595 236.2" xml:space="preserve">
<g>
	<path fill="#FFFFFF" d="M47.1,1100.6l-1.7-0.3c0,0,0.5-2.9,1.4-7.7c8.6-48.9,13-82.1,11.3-84.6c-1.3-1.8-13.8-4-45.2-4.6
		c-5.3-0.1-9-0.1-9-0.1l0-1.7c20.6-0.2,52.4-1.5,56-4c2.5-1.8,7.1-18.7,12.2-45.2c0.9-5,1.6-8.3,1.6-8.3l1.7,0.3
		c0,0-0.6,3.4-1.6,8.4c-4.7,25.9-6.4,42.8-4.6,45.3c2.5,3.5,34.6,5.6,54.2,6.1l0,1.7c-20.6-0.3-52.5,0.2-56,2.7
		c-2.5,1.8-9.9,34.9-18.8,84.5v0C47.7,1097.7,47.1,1100.6,47.1,1100.6"/>
	<path fill="#FFFFFF" d="M118.8,926.4H152c12.3,0,20.3,6.8,20.3,21.6c0,13.5-11.3,25.1-29,25.1h-13.9l-4.2,20.2h-20.3L118.8,926.4z
		 M132.8,957.1h7.9c8.3,0,11-3.1,11-7.6c0-5.1-4.6-6-8.9-6h-7.1L132.8,957.1z"/>
	<polygon fill="#FFFFFF" points="181.2,926.4 201.8,926.4 191.5,976.2 221.1,976.2 217.5,993.3 167.3,993.3 	"/>
	<path fill="#FFFFFF" d="M249.3,926.4h20.2l10.4,66.9h-20.3l-1.1-9.6h-21.8l-5.1,9.6h-21L249.3,926.4z M244.2,969.4h12.8l-2.3-20.1
		h-0.2L244.2,969.4z"/>
	<polygon fill="#FFFFFF" points="293.4,968.8 279.1,926.4 299.8,926.4 306.2,951.3 322.5,926.4 346.7,926.4 314.1,968.6 309,993.3 
		288.4,993.3 	"/>
	<path fill="#FFFFFF" d="M100.4,1016.5h26.3c12.8,0,19.9,6.3,19.9,18.5c0,8.3-5.9,21.1-25.6,21.1h-19.9l-5.8,27.4h-8.9L100.4,1016.5
		z M102.8,1048.6h20.1c9.6,0,14.8-5.6,14.8-13.6c0-8.2-5-11-11-11h-18.8L102.8,1048.6z"/>
	<path fill="#FFFFFF" d="M174.2,1016.5h9.7l12.1,66.9h-9.2l-3.1-20.2h-28.2l-11.7,20.2h-9.9L174.2,1016.5z M159.6,1055.8h23l-5-31.4
		h-0.2L159.6,1055.8z"/>
	<polygon fill="#FFFFFF" points="251.7,1024 229.2,1024 216.6,1083.4 207.7,1083.4 220.3,1024 197.8,1024 199.4,1016.5 
		253.4,1016.5 	"/>
	<path fill="#FFFFFF" d="M275.5,1016.5h9.8l12.1,66.9h-9.2l-3.1-20.2h-28.2l-11.7,20.2h-9.9L275.5,1016.5z M260.9,1055.8h23.1
		l-5-31.4h-0.2L260.9,1055.8z"/>
	<path fill="#FFFFFF" d="M351.3,1076.8c-5,5.6-12.7,8.2-20,8.2c-18.3,0-28.7-10.9-28.7-29.3c0-21.7,13.9-40.8,36.8-40.8
		c14.8,0,26.9,6.9,26.9,22.4h-8.9c0-10.2-8.3-14.9-18-14.9c-18.7,0-27.9,17.1-27.9,33.3c0,12.9,6.4,21.8,19.8,21.8
		c14.2,0,21-8.9,24.2-21.8h-21.4l1.5-7.5h29.1l-7.3,35.2h-5.6L351.3,1076.8z"/>
	<path fill="#FFFFFF" d="M410.6,1014.9c17.3,0,27.9,13,27.9,29.6c0,21-13.7,40.5-36,40.5c-18.3,0-28.7-10.9-28.7-29.3
		C373.8,1034.1,387.7,1014.9,410.6,1014.9 M402.5,1077.5c17.7,0,27.1-17,27.1-33c0-12.4-6.7-22.1-19-22.1
		c-18.7,0-27.9,17.1-27.9,33.3C382.7,1068.6,389.1,1077.5,402.5,1077.5"/>
	<polygon fill="#FFFFFF" points="456.2,1016.5 465.8,1016.5 489.7,1071.9 489.9,1071.9 501,1016.5 509.7,1016.5 495.5,1083.4 
		486,1083.4 462.2,1028.4 462.1,1028.4 450.7,1083.4 442.1,1083.4 	"/>
	<polygon fill="#FFFFFF" points="523.8,1016.5 532.7,1016.5 518.6,1083.4 509.7,1083.4 	"/>
	<path fill="#FFFFFF" d="M568.5,1016.5h9.7l12.1,66.9h-9.2l-3.1-20.2h-28.2l-11.7,20.2h-9.9L568.5,1016.5z M553.9,1055.8h23l-5-31.4
		h-0.2L553.9,1055.8z"/>
	<polygon fill="#FFFFFF" points="85.8,1103.4 88.3,1103.4 96,1124.8 103.8,1103.4 106.3,1103.4 97.4,1127.4 94.7,1127.4 	"/>
	<rect x="108.6" y="1103.4" fill="#FFFFFF" width="2.3" height="24"/>
	<path fill="#FFFFFF" d="M122.9,1103.4h2.6l9.4,24h-2.5l-2.9-7.5h-10.9l-2.9,7.4l-2.4,0L122.9,1103.4z M119.2,1118h9.4l-4.6-12.3
		L119.2,1118z"/>
	<path fill="#FFFFFF" d="M146.7,1103.4h2.3v17.3c0,2.5-0.5,4.3-1.6,5.4c-1.1,1.2-2.9,1.7-5.4,1.7s-4.3-0.7-5.2-2.2
		c-1-1.5-1.4-3.5-1.4-5.9h2.3c0,1.8,0.3,3.3,0.8,4.5c0.5,1.2,1.8,1.8,3.8,1.8c1.7,0,2.9-0.5,3.6-1.4c0.6-0.9,0.9-2.5,0.9-4.8V1103.4
		z"/>
	<polygon fill="#FFFFFF" points="153.8,1103.4 170.3,1103.4 170.3,1105.4 156.1,1105.4 156.1,1114 169.4,1114 169.4,1116 
		156.1,1116 156.1,1125.4 170.5,1125.4 170.5,1127.4 153.8,1127.4 	"/>
	<path fill="#FFFFFF" d="M174.8,1119.5c0,2.3,0.7,4,2.1,4.9c1.4,1,3.3,1.5,5.7,1.5c1.5,0,3-0.4,4.3-1.2c1.4-0.8,2-2,2-3.6
		c0-1.2-0.5-2.2-1.4-2.8c-0.9-0.6-2.1-1.1-3.6-1.5l-5.3-1.3c-1.7-0.4-3-1.1-3.9-1.9c-1-0.9-1.5-2.1-1.5-3.8c0-1.6,0.6-3.1,1.9-4.6
		c1.3-1.4,3.4-2.2,6.4-2.2c2.5,0,4.6,0.7,6.3,2c1.7,1.3,2.5,3.1,2.5,5.5h-2.3c0-1.7-0.6-3.1-1.9-4.1c-1.3-1-2.8-1.4-4.6-1.4
		c-1.7,0-3.2,0.4-4.3,1.1c-1.1,0.8-1.7,2-1.7,3.6c0,1,0.3,1.8,1,2.4c0.6,0.6,1.5,1,2.6,1.3l5.8,1.4c2,0.5,3.5,1.2,4.6,2.2
		c1.1,0.9,1.6,2.3,1.6,4.1c0,1.6-0.6,3.1-1.8,4.6c-1.2,1.5-3.7,2.2-7.3,2.2c-3,0-5.3-0.7-7-2.1c-1.7-1.4-2.5-3.5-2.5-6.3H174.8z"/>
	<polygon fill="#FFFFFF" points="210.8,1117.5 201.4,1103.4 204.1,1103.4 212,1115.6 219.9,1103.4 222.6,1103.4 213.1,1117.5 
		213.1,1127.4 210.8,1127.4 	"/>
	<polygon fill="#FFFFFF" points="234,1103.4 250.6,1103.4 250.6,1105.4 236.3,1105.4 236.3,1114 249.7,1114 249.7,1116 236.3,1116 
		236.3,1125.4 250.7,1125.4 250.7,1127.4 234,1127.4 	"/>
	<polygon fill="#FFFFFF" points="251.3,1103.4 253.7,1103.4 261.5,1124.8 269.3,1103.4 271.7,1103.4 262.8,1127.4 260.2,1127.4 	"/>
	<polygon fill="#FFFFFF" points="273.8,1103.4 290.4,1103.4 290.4,1105.4 276.1,1105.4 276.1,1114 289.5,1114 289.5,1116 
		276.1,1116 276.1,1125.4 290.5,1125.4 290.5,1127.4 273.8,1127.4 	"/>
	<polygon fill="#FFFFFF" points="293.7,1103.4 296.3,1103.4 310.2,1123.7 310.3,1103.4 312.6,1103.4 312.6,1127.4 310,1127.4 
		296.1,1107.1 296,1127.4 293.7,1127.4 	"/>
	<polygon fill="#FFFFFF" points="314.8,1103.4 333.8,1103.4 333.8,1105.4 325.4,1105.4 325.4,1127.4 323.1,1127.4 323.1,1105.4 
		314.8,1105.4 	"/>
	<path fill="#FFFFFF" d="M346.1,1102.9c3.6,0,6.4,1.2,8.3,3.6c2,2.4,3,5.4,3,8.8c0,3.5-1,6.4-3,8.9c-2,2.4-4.7,3.6-8.3,3.6
		c-3.6,0-6.4-1.2-8.4-3.6c-2-2.4-3-5.4-3-8.9c0-3.5,1-6.4,3-8.8C339.7,1104.1,342.5,1102.9,346.1,1102.9 M346.1,1125.9
		c3,0,5.2-1,6.7-3.1c1.5-2.1,2.3-4.5,2.3-7.4c0-2.9-0.8-5.4-2.3-7.4c-1.5-2.1-3.8-3.1-6.7-3.1c-3,0-5.2,1-6.7,3.1
		c-1.5,2.1-2.3,4.5-2.3,7.4c0,2.9,0.8,5.4,2.3,7.4C340.8,1124.9,343.1,1125.9,346.1,1125.9"/>
	<path fill="#FFFFFF" d="M362,1119.5c0,2.3,0.7,4,2.1,4.9c1.4,1,3.3,1.5,5.7,1.5c1.5,0,3-0.4,4.3-1.2c1.4-0.8,2-2,2-3.6
		c0-1.2-0.5-2.2-1.4-2.8c-0.9-0.6-2.1-1.1-3.6-1.5l-5.3-1.3c-1.7-0.4-3-1.1-3.9-1.9c-1-0.9-1.5-2.1-1.5-3.8c0-1.6,0.6-3.1,1.9-4.6
		c1.3-1.4,3.4-2.2,6.4-2.2c2.5,0,4.6,0.7,6.3,2c1.7,1.3,2.6,3.1,2.6,5.5h-2.3c0-1.7-0.6-3.1-1.9-4.1c-1.3-1-2.8-1.4-4.6-1.4
		c-1.7,0-3.2,0.4-4.3,1.1c-1.1,0.8-1.7,2-1.7,3.6c0,1,0.3,1.8,1,2.4c0.6,0.6,1.5,1,2.7,1.3l5.8,1.4c2,0.5,3.5,1.2,4.6,2.2
		c1.1,0.9,1.6,2.3,1.6,4.1c0,1.6-0.6,3.1-1.8,4.6c-1.2,1.5-3.7,2.2-7.3,2.2c-3,0-5.3-0.7-7-2.1c-1.7-1.4-2.5-3.5-2.5-6.3H362z"/>
	<path fill="#FFFFFF" d="M391.4,1103.4h8.3c3.6,0,6.4,1,8.2,3c1.9,2,2.8,5,2.8,9c0,3.9-0.9,6.9-2.8,8.9c-1.9,2-4.6,3-8.2,3h-8.3
		V1103.4z M393.7,1125.4h4.9c3.5,0,6-0.8,7.5-2.3c1.6-1.6,2.3-4.1,2.3-7.7c0-3.6-0.8-6.1-2.3-7.7c-1.6-1.6-4.1-2.3-7.5-2.3h-4.9
		V1125.4z"/>
	<polygon fill="#FFFFFF" points="414.4,1103.4 430.9,1103.4 430.9,1105.4 416.7,1105.4 416.7,1114 430,1114 430,1116 416.7,1116 
		416.7,1125.4 431.1,1125.4 431.1,1127.4 414.4,1127.4 	"/>
	<path fill="#FFFFFF" d="M434.3,1103.4h10.6c2.2,0,3.9,0.6,5.2,1.8c1.3,1.2,1.9,2.9,1.9,5c0,2.1-0.6,3.8-1.9,5
		c-1.3,1.2-3,1.8-5.2,1.8h-8.4v10.3h-2.3V1103.4z M436.6,1115.2h7.9c1.6,0,2.9-0.4,3.9-1.2c1-0.8,1.4-2,1.4-3.7
		c0-1.6-0.5-2.8-1.4-3.7c-1-0.8-2.3-1.2-3.9-1.2h-7.9V1115.2z"/>
	<path fill="#FFFFFF" d="M465.5,1102.9c3.6,0,6.4,1.2,8.3,3.6c2,2.4,3,5.4,3,8.8c0,3.5-1,6.4-3,8.9c-2,2.4-4.7,3.6-8.3,3.6
		c-3.6,0-6.4-1.2-8.4-3.6c-2-2.4-3-5.4-3-8.9c0-3.5,1-6.4,3-8.8C459.1,1104.1,461.9,1102.9,465.5,1102.9 M465.5,1125.9
		c3,0,5.2-1,6.7-3.1c1.5-2.1,2.3-4.5,2.3-7.4c0-2.9-0.8-5.4-2.3-7.4c-1.5-2.1-3.8-3.1-6.7-3.1c-3,0-5.2,1-6.7,3.1
		c-1.5,2.1-2.3,4.5-2.3,7.4c0,2.9,0.8,5.4,2.3,7.4C460.3,1124.9,462.5,1125.9,465.5,1125.9"/>
	<path fill="#FFFFFF" d="M480.3,1103.4h11c2.1,0,3.9,0.5,5.3,1.6c1.4,1,2,2.6,2,4.7c0,1.6-0.4,2.9-1.2,4c-0.8,1.1-2,1.8-3.5,2.1
		c1.5,0.2,2.5,0.8,3.2,1.8c0.7,1,1,2.2,1,3.7c0,1.3,0.1,2.5,0.2,3.6c0.1,1.1,0.4,2,0.9,2.5h-2.5c-0.2-0.3-0.3-0.8-0.5-1.4
		c-0.1-0.6-0.2-1.4-0.2-2.3c0-2.7-0.4-4.6-1.3-5.5c-0.8-0.9-2-1.4-3.5-1.4h-8.7v10.6h-2.3V1103.4z M482.6,1114.8h8.5
		c1.4,0,2.7-0.4,3.7-1.3c1-0.9,1.5-2,1.5-3.4c0-1.5-0.4-2.7-1.3-3.5c-0.9-0.8-2.2-1.3-3.9-1.3h-8.5V1114.8z"/>
	<polygon fill="#FFFFFF" points="500.1,1103.4 519.1,1103.4 519.1,1105.4 510.8,1105.4 510.8,1127.4 508.5,1127.4 508.5,1105.4 
		500.1,1105.4 	"/>
	<rect x="521.5" y="1103.4" fill="#FFFFFF" width="2.3" height="24"/>
	<polygon fill="#FFFFFF" points="526.2,1103.4 528.6,1103.4 536.4,1124.8 544.2,1103.4 546.6,1103.4 537.7,1127.4 535.1,1127.4 	"/>
	<path fill="#FFFFFF" d="M558.8,1102.9c3.6,0,6.4,1.2,8.3,3.6c2,2.4,3,5.4,3,8.8c0,3.5-1,6.4-3,8.9c-2,2.4-4.7,3.6-8.3,3.6
		c-3.6,0-6.4-1.2-8.4-3.6c-2-2.4-3-5.4-3-8.9c0-3.5,1-6.4,3-8.8C552.4,1104.1,555.2,1102.9,558.8,1102.9 M558.8,1125.9
		c3,0,5.2-1,6.7-3.1c1.5-2.1,2.3-4.5,2.3-7.4c0-2.9-0.8-5.4-2.3-7.4c-1.5-2.1-3.8-3.1-6.7-3.1c-3,0-5.2,1-6.7,3.1
		c-1.5,2.1-2.3,4.5-2.3,7.4c0,2.9,0.8,5.4,2.3,7.4C553.5,1124.9,555.8,1125.9,558.8,1125.9"/>
	<path fill="#FFFFFF" d="M574.7,1119.5c0,2.3,0.7,4,2.1,4.9c1.4,1,3.3,1.5,5.7,1.5c1.5,0,3-0.4,4.3-1.2c1.4-0.8,2-2,2-3.6
		c0-1.2-0.5-2.2-1.4-2.8c-0.9-0.6-2.1-1.1-3.6-1.5l-5.3-1.3c-1.7-0.4-3-1.1-3.9-1.9c-1-0.9-1.5-2.1-1.5-3.8c0-1.6,0.6-3.1,1.9-4.6
		c1.3-1.4,3.4-2.2,6.4-2.2c2.5,0,4.6,0.7,6.3,2c1.7,1.3,2.6,3.1,2.6,5.5H588c0-1.7-0.6-3.1-1.9-4.1c-1.3-1-2.8-1.4-4.6-1.4
		c-1.7,0-3.2,0.4-4.3,1.1c-1.1,0.8-1.7,2-1.7,3.6c0,1,0.3,1.8,1,2.4c0.6,0.6,1.5,1,2.7,1.3l5.8,1.4c2,0.5,3.5,1.2,4.6,2.2
		c1.1,0.9,1.6,2.3,1.6,4.1c0,1.6-0.6,3.1-1.8,4.6c-1.2,1.5-3.7,2.2-7.3,2.2c-3,0-5.3-0.7-7-2.1c-1.7-1.4-2.5-3.5-2.5-6.3H574.7z"/>
</g>
</svg>
