<?xml version="1.0" encoding="utf-8"?>
<!-- Generator: Adobe Illustrator 18.0.0, SVG Export Plug-In . SVG Version: 6.00 Build 0)  -->
<!DOCTYPE svg PUBLIC "-//W3C//DTD SVG 1.1//EN" "http://www.w3.org/Graphics/SVG/1.1/DTD/svg11.dtd">
<svg version="1.1" id="Capa_1" xmlns="http://www.w3.org/2000/svg" xmlns:xlink="http://www.w3.org/1999/xlink" x="0px" y="0px"
	 viewBox="0 909 595 236.2" enable-background="new 0 909 595 236.2" xml:space="preserve">
<g>
	<path fill="#FFFFFF" d="M101.3,956.2v144h14.6l19.8-27.1h-5.5l0.1-36H159l9.4-12.8v-11.7h-37.9l0.1-31.8h41.3v-24.5H101.3z
		 M171.8,1100.2v-19.9l-15.6,19.9H171.8z"/>
	<polyline fill="#FFFFFF" points="145.6,1108.5 116.7,1108.5 230.7,945.8 260,945.8 145.6,1108.5 	"/>
	<line fill="#FFFFFF" x1="384.2" y1="967.7" x2="384.2" y2="967.7"/>
	<polyline fill="#FFFFFF" points="356.1,1010.4 356,1100.2 384.2,1100.2 384.2,955.7 362.2,955.7 296.5,1047.3 296.5,956.2 
		275.6,956.2 174.1,1100.2 205.9,1100.2 269.9,1010 270.4,1100.2 290.7,1100.2 356.1,1010.4 	"/>
	<path fill="#FFFFFF" d="M533.9,1100.2h33.9l-51.5-74l48.9-70h-29.7l-34.2,48.4l-33.7-48.4h-32.9l49.8,72l-8.9,12.6l-56-80.1v-0.2
		l-3.2-4.3h-23v144h26.1v-42.8h36.5l3.8,5.7l-26.2,37.1h30.8l10.4-14.9l10,14.9h32.3l-26.4-37.7l8.6-12.2L533.9,1100.2z
		 M499.6,1050.1l4,5.8l-4.2-5.6L499.6,1050.1z M419.7,1033.5v-26.6l19.2,26.6H419.7z"/>
	<path fill="#FFFFFF" d="M63.2,1048.1l-3.4,0.2c21.6-4.9,37.8-23.2,37.8-45c0-25.7-15.4-47-42.7-47c-9.2,0-18.6-0.4-26.5,0H0.6v144
		h28.7v-50.8c0.6,0,1.2,0,1.8,0.1l-1.8,0.1l40.7,50.6h33.3L63.2,1048.1z M29.3,980.7c3.9,0.2,9.7-0.5,18.8-0.5
		c12.2,0,22.2,10.4,22.2,23c0,12.6-10.1,23.5-22.2,22.9c-8.3-0.4-14.4,0.1-18.8-0.1V980.7z"/>
	<path fill="#FFFFFF" d="M577.8,978.6h-3.3v-15.3h5.7c4,0,6.3,1.1,6.3,4.6c0,2.8-1.7,3.9-3.7,4l3.9,6.7h-3.9l-3.5-6.4h-1.5V978.6z
		 M580.7,969.5c1.5,0,2.4-0.3,2.4-2c0-1.6-1.7-1.7-2.9-1.7h-2.3v3.7H580.7z M580.1,985.1c-7.5,0-14.3-5.2-14.3-14.2
		c0-9,6.7-14.2,14.3-14.2c7.5,0,14.2,5.2,14.2,14.2C594.4,979.9,587.6,985.1,580.1,985.1z M580.1,960c-5.7,0-10.2,4.4-10.2,10.9
		c0,6.5,4.5,10.9,10.2,10.8v0.1c5.5,0,10.1-4.4,10.1-10.9C590.3,964.4,585.6,960,580.1,960z"/>
</g>
</svg>
