<?xml version="1.0" encoding="utf-8"?>
<!-- Generator: Adobe Illustrator 18.0.0, SVG Export Plug-In . SVG Version: 6.00 Build 0)  -->
<!DOCTYPE svg PUBLIC "-//W3C//DTD SVG 1.1//EN" "http://www.w3.org/Graphics/SVG/1.1/DTD/svg11.dtd">
<svg version="1.1" id="Capa_1" xmlns="http://www.w3.org/2000/svg" xmlns:xlink="http://www.w3.org/1999/xlink" x="0px" y="0px"
	 viewBox="0 1213.2 595.3 234.7" enable-background="new 0 1213.2 595.3 234.7" xml:space="preserve">
<g>
	<g>
		<path fill="#262424" d="M102.1,1321.3c0.1,0.3,0.2,0.6,0.3,0.9c0.5,1.1,1.4,2,2.6,2.4c4.6,1.5,8.7,2.6,12.4,3.3
			c8.3,1.6,14.4,1.6,18.2,1.6c12.4,0,21.8-3.6,27.9-10.6c5.2-5.9,7.5-13.3,6.7-21.9c-0.6-7.5-3.4-13.9-8.2-19
			c-4.5-4.9-11.5-9.1-20.6-12.5c-7.1-2.6-10.2-4.6-11.6-5.8c-1.5-1.3-2.3-2.9-2.5-4.9c-0.1-1.5,0.2-2.6,1.1-3.6
			c1.4-1.4,3.8-2.1,7.2-2.1c4,0,9.6,0.7,13.4,1.9v2.9c0,2.5,2,4.4,4.5,4.4h13.3c2.4,0,4.4-2,4.4-4.4v-3.2v-12.5v-1.4
			c0-1.6-0.9-3.1-2.2-3.9c-0.7-0.4-1.4-0.8-15.9-4.9c-5.1-1.5-13.8-2-18.4-2c-10.1,0-18.3,2.8-24.3,8.4c-0.7,0.6-1.3,1.3-1.9,2
			c-0.1,0.2-0.3,0.3-0.4,0.5c-0.6,0.7-1.1,1.4-1.6,2.1c-0.1,0.1-0.1,0.2-0.2,0.3c-0.4,0.7-0.8,1.4-1.2,2.1c-0.1,0.2-0.2,0.3-0.3,0.5
			c-0.4,0.8-0.8,1.6-1.1,2.4c-0.1,0.1-0.1,0.3-0.2,0.4c-0.2,0.7-0.5,1.4-0.6,2.2c-0.1,0.2-0.1,0.4-0.2,0.7c-0.2,0.9-0.4,1.8-0.5,2.7
			c0,0.1,0,0.2,0,0.3c-0.1,0.8-0.1,1.7-0.2,2.5c0,0.2,0,0.5,0,0.7c0,1,0,2,0.1,3c0.1,0.8,0.2,1.5,0.3,2.3c0,0.3,0.1,0.5,0.1,0.8
			c0.1,0.5,0.2,1,0.3,1.5c0.1,0.3,0.1,0.5,0.2,0.8c0.2,0.6,0.3,1.2,0.5,1.7c0.1,0.2,0.2,0.5,0.3,0.7c0.2,0.5,0.4,1.1,0.7,1.6
			c0.1,0.3,0.3,0.6,0.4,0.8c0.2,0.4,0.4,0.8,0.6,1.2c0.1,0.3,0.3,0.5,0.5,0.8c0.3,0.5,0.6,1,0.9,1.4c0.2,0.3,0.4,0.5,0.5,0.8
			c0.3,0.5,0.7,0.9,1.1,1.4c0.2,0.2,0.4,0.5,0.6,0.7c0.3,0.4,0.7,0.7,1,1.1c0.2,0.2,0.4,0.4,0.6,0.7c0.5,0.5,1,1,1.5,1.5
			c0.1,0.1,0.3,0.2,0.4,0.3c0.6,0.5,1.2,1,1.8,1.5c0.2,0.2,0.4,0.3,0.6,0.5c0.5,0.4,1,0.8,1.6,1.1c0.2,0.1,0.4,0.3,0.6,0.4
			c4.1,2.7,8.9,5.1,14.6,7.1c1.3,0.5,2.3,0.9,3.4,1.3c4.2,1.8,6.4,3.4,7.5,4.6l0,0c1.3,1.3,2,3,2.2,5.1c0.3,3.1-0.8,4.5-1.8,5.3
			c-1.7,1.5-4.5,2.3-8.1,2.3c-0.7,0-1.4,0-2.1,0c-0.7,0-1.4,0.1-2,0.1c-1.2,0.1-2.4,0.1-3.6,0.1c-1.3,0-2.3-0.1-3.3-0.2v-6.4
			c0-0.7-0.2-1.4-0.5-2c-0.2-0.4-0.4-0.7-0.7-1l0,0c-0.3-0.3-0.6-0.5-0.9-0.8c0,0-0.1,0-0.1-0.1c-0.3-0.2-0.6-0.3-0.9-0.4
			c-0.1,0-0.2-0.1-0.3-0.1c-0.4-0.1-0.7-0.2-1.1-0.2h-13.3c-2.5,0-4.4,2-4.4,4.4v20.5C101.9,1320.6,102,1320.9,102.1,1321.3
			C102,1321.3,102.1,1321.3,102.1,1321.3z"/>
		<path fill="#262424" d="M388.7,1328.6h16.9c2,0,3.7-1.3,4.3-3.2l5.9-19.4H439l5.9,19.5c0.6,1.9,2.3,3.1,4.2,3.1h2.5h16
			c0.9,0,1.7-0.3,2.4-0.7c0.3-0.2,0.6-0.4,0.8-0.7l0.1-0.1c0.2-0.2,0.4-0.4,0.5-0.7c0-0.1,0.1-0.2,0.1-0.3c0.1-0.2,0.2-0.5,0.3-0.7
			c0-0.1,0.1-0.2,0.1-0.3c0.1-0.3,0.1-0.7,0.1-1V1311c0-2.5-2-4.4-4.4-4.4h-4.1l-22.9-76c-0.6-1.9-2.3-3.2-4.3-3.2h-25.4
			c-0.3,0-0.6,0-0.9,0.1h-0.1c-0.3,0.1-0.5,0.1-0.8,0.3l0,0c-0.5,0.2-1,0.6-1.4,1c-0.7,0.8-1.2,1.8-1.2,3v12.1
			c0,0.2,0.1,0.4,0.1,0.5c0.2,1.5,1,2.8,2.3,3.4l-17.6,58.7h-2.5c-2.5,0-4.4,2-4.4,4.4v13.2C384.2,1326.6,386.2,1328.6,388.7,1328.6
			z M422.9,1282.1l4.4-14.6l4.4,14.6H422.9z"/>
		<path fill="#262424" d="M315.8,1327.9h56.6c2,0,3.7-1.3,4.3-3.2l6.8-23.2c0.2-0.4,0.2-0.9,0.2-1.4c0-2.4-2-4.4-4.4-4.4h-15.6
			c-1.9,0-3.6,1.2-4.2,3.1l-2.3,7.1h-16.4v-51.3v-5.7h0.9c2.5,0,4.4-2,4.4-4.4v-1.2v-12c0-2.5-2-4.4-4.4-4.4h-25.8
			c-0.4,0-0.7,0.1-1.1,0.2c-0.1,0-0.2,0.1-0.3,0.1c-0.3,0.1-0.6,0.2-0.8,0.4c-0.1,0-0.1,0.1-0.2,0.1c-0.6,0.4-1.2,1-1.5,1.6
			c-0.4,0.6-0.6,1.4-0.6,2.2v13.2c0,0.7,0.2,1.4,0.5,2c0.7,1.5,2.2,2.5,4,2.5h0.9v57h-0.9c-2.5,0-4.4,2-4.4,4.4v13.2
			C311.4,1325.9,313.4,1327.9,315.8,1327.9z"/>
		<path fill="#262424" d="M224,1328.6h16.9c2,0,3.7-1.3,4.3-3.2l5.9-19.4h23.2l5.9,19.5c0.6,1.9,2.3,3.1,4.3,3.1H303
			c2.5,0,4.4-2,4.4-4.4V1311c0-2.5-2-4.4-4.4-4.4h-4.1l-15.3-50.8l-7.6-25.1c-0.6-1.9-2.3-3.2-4.3-3.2h-25.4c-0.4,0-0.7,0.1-1,0.1
			c-0.1,0-0.2,0.1-0.3,0.1c-0.2,0.1-0.5,0.2-0.7,0.3c-0.1,0-0.2,0.1-0.3,0.1c-0.2,0.1-0.4,0.3-0.6,0.4c-0.1,0.1-0.1,0.1-0.2,0.2
			c-0.2,0.2-0.5,0.5-0.6,0.7c-0.5,0.7-0.8,1.6-0.8,2.5v12.1c0,0.7,0.2,1.3,0.4,1.8c0.4,0.9,1.1,1.6,2,2.1l-17.6,58.7H224
			c-2.4,0-4.4,2-4.4,4.4v13.2C219.5,1326.6,221.5,1328.6,224,1328.6z M258.2,1282.1l4.4-14.6l4.4,14.6H258.2z"/>
		<path fill="#262424" d="M185,1328.2h25.8c2.5,0,4.4-2,4.4-4.4v-13.2c0-2.4-2-4.4-4.4-4.4h-0.9v-51.7v-5.3h0.9c2.5,0,4.4-2,4.4-4.4
			v-1.6v-11.6c0-2.5-2-4.4-4.4-4.4H185c-0.4,0-0.7,0.1-1,0.1c-0.1,0-0.2,0.1-0.3,0.1c-0.3,0.1-0.5,0.2-0.7,0.3
			c-0.1,0-0.1,0.1-0.2,0.1c-0.6,0.4-1.1,0.8-1.5,1.4c-0.4,0.7-0.7,1.5-0.7,2.4v13.2c0,0.5,0.1,1.1,0.3,1.5c0.6,1.7,2.2,2.9,4.2,2.9
			h0.9v56.9h-1c-2.4,0-4.4,2-4.4,4.4v13.2C180.5,1326.2,182.5,1328.2,185,1328.2z"/>
		<path fill="#262424" d="M557.4,1412.4h-3.9l-22.2-73.6c-0.6-1.9-2.3-3.2-4.3-3.2h-24.6c-0.4,0-0.7,0.1-1.1,0.1
			c-0.1,0-0.2,0.1-0.3,0.1c-0.3,0.1-0.6,0.2-0.8,0.4l-0.1,0.1c-0.6,0.4-1.2,0.9-1.5,1.6c-0.4,0.6-0.6,1.4-0.6,2.2v11.7
			c0,1.2,0.5,2.3,1.3,3.1c0.3,0.3,0.6,0.6,1,0.8l-17.1,56.7h-2.4c-2.5,0-4.4,2-4.4,4.4v3.8v9c0,1.4,0.7,2.7,1.7,3.5
			c0.8,0.6,1.7,0.9,2.7,0.9h16.4c1,0,2-0.4,2.7-1c0.7-0.6,1.2-1.3,1.5-2.2l3.1-10.3l2.5-8.4h22.3l2.7,8.8l3,10
			c0.4,1.2,1.2,2.2,2.3,2.7c0.6,0.3,1.2,0.4,1.9,0.4h17.9c2.5,0,4.4-2,4.4-4.4v-12.8C561.8,1414.4,559.9,1412.4,557.4,1412.4z
			 M514.3,1388.7l4.1-13.6l4.1,13.6H514.3z"/>
		<path fill="#262424" d="M470.7,1345.9c-1-0.9-2.1-1.7-3.2-2.5c-0.4-0.3-0.8-0.5-1.2-0.8c-0.8-0.5-1.5-1-2.3-1.5
			c-0.4-0.2-0.8-0.5-1.2-0.7c-4.7-2.7-9.7-4.5-15-5.6c-3.5-0.7-7.1-1.1-10.8-1.1c-14.1,0-26.4,4.9-36.4,14.6
			c-10,9.7-15.1,21.6-15.1,35.4c0,13.8,5.1,25.7,15.1,35.4c0.5,0.5,1.1,1,1.6,1.5c7.7,6.9,16.6,11.1,26.6,12.5
			c2.6,0.4,5.4,0.6,8.2,0.6c2.3,0,4.6-0.2,6.9-0.6c8.7-1.4,17.7-5.3,26.9-11.8c0.3-0.2,0.6-0.5,0.9-0.8c0.7-0.8,1-1.8,1-2.8v-12.5
			c0-2.5-2-4.4-4.4-4.4h-12.9c-2.4,0-4.4,2-4.4,4.4v3.1c-4.3,2.2-9,3.2-14,3.2c-8.1,0-14.5-2.6-19.5-8c-4.9-5.3-7.3-11.8-7.3-19.8
			c0-8.1,2.4-14.6,7.3-19.9c5-5.4,11.4-8,19.5-8c5.1,0,9.7,1.1,14,3.2v3c0,2.5,2,4.4,4.4,4.4h12.9c2.4,0,4.3-1.9,4.4-4.3v-0.1v-12.4
			v-0.1C472.8,1348.2,472,1346.7,470.7,1345.9z"/>
		<path fill="#262424" d="M386.7,1339.7c0-2.5-2-4.4-4.4-4.4H358c-2.5,0-4.4,2-4.4,4.4v12.5c0,2.5,2,4.4,4.4,4.4h0.6v48
			c0,1.6-0.4,2.9-1.3,4.1c-0.8,1.1-1.8,1.8-3,2.1c-0.5,0-2.2,0.1-8.3,0.1c-7,0-8.7-0.1-9.1-0.1c-1.1-0.2-2-0.8-2.8-1.9
			c-0.9-1.2-1.4-2.6-1.4-4.3v-48h0.6c2.5,0,4.4-2,4.4-4.4v-12.5c0-2.5-2-4.4-4.4-4.4H309c-2.4,0-4.4,2-4.4,4.4v12.5
			c0,2.5,2,4.4,4.4,4.4h0.6v48.7c0,5.8,1.6,10.9,4.8,15.5c0.7,1,1.5,2,2.3,2.9c4.6,5.1,10.5,8.2,17.4,9.1c1.9,0.2,3.8,0.4,5.7,0.5
			c2,0.1,3.9,0.2,5.8,0.2c2,0,3.9-0.1,5.9-0.2c1.8-0.1,3.7-0.3,5.5-0.5c6.9-0.9,12.8-3.9,17.5-9.1c0.9-0.9,1.6-1.9,2.3-2.9
			c3.2-4.6,4.8-9.7,4.8-15.4v-48.7h0.6c2.5,0,4.4-2,4.4-4.4L386.7,1339.7L386.7,1339.7z"/>
		<path fill="#262424" d="M301.3,1401.9h-12.8c-2.5,0-4.4,2-4.4,4.4v5.4h-16.9v-55.1h0.7c2.5,0,4.4-2,4.4-4.4v-12.8
			c0-2.5-2-4.5-4.4-4.5h-25c-2.5,0-4.4,2-4.4,4.5v12.8c0,2.5,2,4.4,4.4,4.4h0.7v55.1h-0.7c-2.5,0-4.4,2-4.4,4.4v4.7v8.1
			c0,2.3,1.8,4.2,4.1,4.4c0.1,0,0.2,0,0.4,0h58.4c0.3,0,0.6,0,0.9-0.1c2-0.4,3.6-2.2,3.6-4.3v-8.2v-14.5
			C305.8,1403.8,303.8,1401.9,301.3,1401.9z"/>
		<path fill="#262424" d="M229.8,1412.4h-3.9l-22.2-73.6c-0.6-1.9-2.3-3.2-4.2-3.2h-24.6c-2.4,0-4.4,2-4.4,4.4v11.7
			c0,1.7,0.9,3.1,2.3,3.9l-17.1,56.7h-2.4c-2.4,0-4.4,2-4.4,4.4v4.1v8.7c0,1.6,0.9,3,2.2,3.8c0.7,0.4,1.4,0.7,2.3,0.7h16.4
			c0.8,0,1.6-0.2,2.3-0.7c0.9-0.6,1.6-1.4,1.9-2.5l3-10l2.6-8.7h22.3l2.6,8.7l3.1,10.1c0.3,1,1,1.9,1.9,2.5c0.7,0.4,1.5,0.7,2.4,0.7
			h18c0.9,0,1.7-0.3,2.4-0.7c1.2-0.8,2-2.2,2-3.7v-8.8v-4C234.2,1414.4,232.2,1412.4,229.8,1412.4z M186.6,1388.7l4.1-13.6l4.1,13.6
			H186.6z"/>
		<path fill="#262424" d="M140.4,1335.1h-20.2h-5.6c-1.9,0-3.5,1.2-4.2,2.9l-1.3,3.4l-3.1,8.4l-4.6,12.5L89,1396.4l-12.5-34.5
			l-8.7-24c-0.6-1.8-2.3-2.9-4.2-2.9H37.9c-2.5,0-4.4,2-4.4,4.4v12.8c0,2.5,2,4.4,4.4,4.4h0.7v54.9h-0.7c-2.5,0-4.4,2-4.4,4.4v12.8
			c0,2.5,2,4.4,4.4,4.4h24.9c2.5,0,4.4-2,4.4-4.4v-8.1v-4.8c0-2.5-2-4.4-4.4-4.4h-0.7V1388l11.9,33l3.5,9.6c0.6,1.8,2.3,2.9,4.2,2.9
			h15c1.9,0,3.5-1.2,4.2-2.9l3.5-9.6l11.8-32.6v23.4h-0.7c-2.5,0-4.5,2-4.5,4.4v4.8v8.1c0,2.5,2,4.4,4.5,4.4h9h15.9h0.1
			c2.4-0.1,4.3-2,4.3-4.4v-8.1v-4.7c0-2.5-2-4.4-4.4-4.4h-0.7V1357h0.7c2.4,0,4.4-2,4.4-4.4v-12.8
			C144.8,1337.1,142.8,1335.1,140.4,1335.1z"/>
	</g>
	<g>
		<polygon fill="#FFFFFF" points="186.6,1388.7 194.8,1388.7 190.7,1375.1 		"/>
		<polygon fill="#FFFFFF" points="514.3,1388.7 522.4,1388.7 518.3,1375.1 		"/>
		<polygon fill="#FFFFFF" points="262.6,1267.5 258.2,1282.1 267,1282.1 		"/>
		<polygon fill="#FFFFFF" points="427.3,1267.5 422.9,1282.1 431.7,1282.1 		"/>
		<path fill="#FFFFFF" d="M563.1,1400.8l-19.8-65.7c-2.2-7.2-8.7-12.1-16.3-12.1h-24.6c-5.4,0-10.4,2.6-13.6,6.8l-7.4,7.4h-1.6
			c-0.2-0.2-0.5-0.4-0.7-0.6c3.4-3.2,5.4-7.6,5.4-12.4V1311c0-7.5-4.8-13.8-11.5-16.1l-20.5-67.9c-2.1-7.2-8.8-12.2-16.3-12.2h-25.4
			c-2.4,0-4.7,0.5-6.8,1.4c-3.2,0.1-6.3,1.4-8.5,3.7l-10.6,10.6h-26.4c-0.3-9.1-7.8-16.4-17-16.4h-25.8c-4.3,0-8.4,1.6-11.4,4.4
			c-0.6,0.4-1.1,0.9-1.6,1.4l-10.6,10.6h-3.2l-1.1-3.7c-2.2-7.2-8.7-12.1-16.3-12.1h-25.4c-2.6,0-5.1,0.6-7.4,1.7
			c-2.3,0.5-4.5,1.6-6.2,3.4l-5.8,5.8c-2.4-6.6-8.6-11.2-16-11.2H185c-3.3,0-6.5,1-9.2,2.7c-1.5,0.6-2.9,1.5-4.1,2.7l-0.3,0.3
			c-2.4-0.8-6.6-2-14.7-4.4c-6.9-2-17-2.5-21.8-2.5c-13.4,0-24.4,4-32.9,11.8c-2.8,2.7-5.2,5.6-7.1,8.8c-4.1,7-5.8,15.1-5,23.9
			c0.7,7.3,3.4,16.8,11.8,25.6c-7,2.1-12.1,8.6-12.1,16.3v20.5c0,0.4,0,0.8,0,1.3c-0.2,1.9,0.1,3.8,0.8,5.6l3.9,10.2h-9.2l-6.9-6.9
			c-3.1-4.8-8.5-7.9-14.4-7.9H37.9c-9.4,0-17,7.6-17,17v12.8c0,4.8,2,9.1,5.2,12.2v39.4c-3.2,3.1-5.2,7.4-5.2,12.2v12.8
			c0,9.4,7.6,17,17,17h43.9l432.5-0.4l42.8,1c0.1,0,0.2,0,0.3,0c9.4,0,17-7.6,17-17v-12.8C574.4,1409.5,569.7,1403.2,563.1,1400.8z
			 M409.1,1227.8L409.1,1227.8c0.3-0.1,0.5-0.2,0.8-0.3h0.1c0.3-0.1,0.6-0.1,0.9-0.1h25.4c2,0,3.7,1.3,4.3,3.2l22.9,76h4.1
			c2.5,0,4.4,2,4.4,4.4v13.2c0,0.4-0.1,0.7-0.1,1c0,0.1-0.1,0.2-0.1,0.3c-0.1,0.2-0.2,0.5-0.3,0.7c0,0.1-0.1,0.2-0.1,0.3
			c-0.1,0.2-0.3,0.5-0.5,0.7l-0.1,0.1c-0.2,0.2-0.5,0.5-0.8,0.7c-0.7,0.5-1.5,0.7-2.4,0.7h-16H449c-1.9,0-3.7-1.3-4.2-3.1l-5.9-19.5
			h-23.2l-5.9,19.4c-0.6,1.9-2.3,3.2-4.3,3.2h-16.9c-2.5,0-4.4-2-4.4-4.4V1311c0-2.5,2-4.4,4.4-4.4h2.5l17.6-58.7
			c-1.3-0.7-2.1-1.9-2.3-3.4c0-0.2-0.1-0.3-0.1-0.5v-12.1c0-1.2,0.5-2.2,1.2-3C408,1228.4,408.5,1228,409.1,1227.8z M313.5,1227.4
			c0,0,0.1-0.1,0.2-0.1c0.3-0.1,0.5-0.3,0.8-0.4c0.1,0,0.2-0.1,0.3-0.1c0.4-0.1,0.7-0.2,1.1-0.2h25.8c2.5,0,4.4,2,4.4,4.4v12v1.2
			c0,2.4-2,4.4-4.4,4.4h-0.9v5.7v51.3h16.4l2.3-7.1c0.6-1.8,2.3-3.1,4.2-3.1h15.6c2.5,0,4.4,2,4.4,4.4c0,0.5-0.1,1-0.2,1.4
			l-6.8,23.2c-0.6,1.9-2.3,3.2-4.3,3.2h-56.6c-2.5,0-4.4-2-4.4-4.4V1310c0-2.5,2-4.4,4.4-4.4h0.9v-57h-0.9c-1.7,0-3.2-1-4-2.5
			c-0.3-0.6-0.5-1.3-0.5-2v-13.2c0-0.8,0.2-1.5,0.6-2.2C312.3,1228.3,312.9,1227.7,313.5,1227.4z M243.2,1228.6
			c0.1-0.1,0.1-0.1,0.2-0.2c0.2-0.2,0.4-0.3,0.6-0.4c0.1-0.1,0.2-0.1,0.3-0.1c0.2-0.1,0.4-0.2,0.7-0.3c0.1,0,0.2-0.1,0.3-0.1
			c0.3-0.1,0.7-0.1,1-0.1h25.4c2,0,3.7,1.3,4.3,3.2l7.6,25.1l15.3,50.8h4.1c2.5,0,4.4,2,4.4,4.4v13.2c0,2.5-2,4.4-4.4,4.4h-18.5
			c-2,0-3.7-1.3-4.3-3.1l-5.9-19.5H251l-5.9,19.4c-0.6,1.9-2.3,3.2-4.3,3.2H224c-2.4,0-4.4-2-4.4-4.4V1311c0-2.5,2-4.4,4.4-4.4h2.5
			l17.6-58.7c-0.9-0.5-1.5-1.2-2-2.1c-0.3-0.6-0.4-1.2-0.4-1.8v-12.1c0-0.9,0.3-1.8,0.8-2.5C242.7,1229.1,242.9,1228.8,243.2,1228.6
			z M182.7,1227.7c0.1,0,0.1-0.1,0.2-0.1c0.2-0.1,0.5-0.2,0.7-0.3c0.1,0,0.2-0.1,0.3-0.1c0.3-0.1,0.7-0.1,1-0.1h25.8
			c2.5,0,4.4,2,4.4,4.4v11.6v1.6c0,2.5-2,4.4-4.4,4.4h-0.9v5.3v51.7h0.9c2.5,0,4.4,2,4.4,4.4v13.2c0,2.5-2,4.4-4.4,4.4H185
			c-2.4,0-4.4-2-4.4-4.4v-13.2c0-2.4,2-4.4,4.4-4.4h0.9v-56.9H185c-1.9,0-3.5-1.2-4.2-2.9c-0.2-0.5-0.3-1-0.3-1.5v-13.2
			c0-0.9,0.3-1.7,0.7-2.4C181.6,1228.6,182.1,1228.1,182.7,1227.7z M101.9,1299.8c0-2.5,2-4.4,4.4-4.4h13.3c0.4,0,0.8,0.1,1.1,0.2
			c0.1,0,0.2,0.1,0.3,0.1c0.3,0.1,0.6,0.2,0.9,0.4c0,0,0.1,0,0.1,0.1c0.3,0.2,0.6,0.5,0.9,0.8l0,0c0.3,0.3,0.5,0.6,0.7,1
			c0.3,0.6,0.5,1.3,0.5,2v6.4c1,0.2,2,0.2,3.3,0.2c1.1,0,2.3-0.1,3.6-0.1c0.7,0,1.3-0.1,2-0.1s1.4,0,2.1,0c3.7,0,6.4-0.8,8.1-2.3
			c1-0.9,2.1-2.2,1.8-5.3c-0.2-2.1-0.9-3.8-2.2-5.1l0,0c-1.1-1.1-3.3-2.7-7.5-4.6c-1-0.4-2.1-0.9-3.4-1.3c-5.7-2-10.5-4.4-14.6-7.1
			c-0.2-0.1-0.4-0.3-0.6-0.4c-0.5-0.4-1.1-0.8-1.6-1.1c-0.2-0.2-0.4-0.3-0.6-0.5c-0.6-0.5-1.2-1-1.8-1.5c-0.1-0.1-0.3-0.2-0.4-0.3
			c-0.5-0.5-1-1-1.5-1.5c-0.2-0.2-0.4-0.4-0.6-0.7c-0.3-0.4-0.7-0.7-1-1.1c-0.2-0.2-0.4-0.5-0.6-0.7c-0.4-0.5-0.7-0.9-1.1-1.4
			c-0.2-0.3-0.4-0.5-0.5-0.8c-0.3-0.5-0.6-1-0.9-1.4c-0.2-0.3-0.3-0.5-0.5-0.8c-0.2-0.4-0.4-0.8-0.6-1.2c-0.1-0.3-0.3-0.5-0.4-0.8
			c-0.2-0.5-0.5-1.1-0.7-1.6c-0.1-0.2-0.2-0.5-0.3-0.7c-0.2-0.6-0.4-1.1-0.5-1.7c-0.1-0.3-0.1-0.5-0.2-0.8c-0.1-0.5-0.2-1-0.3-1.5
			c0-0.3-0.1-0.5-0.1-0.8c-0.1-0.7-0.2-1.5-0.3-2.3c-0.1-1-0.1-2-0.1-3c0-0.3,0-0.5,0-0.7c0-0.9,0.1-1.7,0.2-2.5c0-0.1,0-0.2,0-0.3
			c0.1-0.9,0.3-1.8,0.5-2.7c0.1-0.2,0.1-0.4,0.2-0.7c0.2-0.7,0.4-1.5,0.6-2.2c0.1-0.1,0.1-0.3,0.2-0.4c0.3-0.8,0.7-1.6,1.1-2.4
			c0.1-0.2,0.2-0.3,0.3-0.5c0.4-0.7,0.8-1.4,1.2-2.1c0.1-0.1,0.1-0.2,0.2-0.3c0.5-0.7,1-1.4,1.6-2.1c0.1-0.2,0.3-0.3,0.4-0.5
			c0.6-0.7,1.2-1.4,1.9-2c6-5.6,14.2-8.4,24.3-8.4c4.6,0,13.2,0.5,18.4,2c14.5,4.1,15.2,4.5,15.9,4.9c1.4,0.8,2.2,2.3,2.2,3.9v1.4
			v12.5v3.2c0,2.5-2,4.4-4.4,4.4h-13.3c-2.5,0-4.5-2-4.5-4.4v-2.9c-3.8-1.2-9.4-1.9-13.4-1.9c-3.4,0-5.8,0.7-7.2,2.1
			c-0.9,1-1.3,2.1-1.1,3.6c0.2,2.1,1,3.7,2.5,4.9c1.4,1.2,4.5,3.1,11.6,5.8c9.1,3.4,16.1,7.7,20.6,12.5c4.8,5.1,7.6,11.5,8.2,19
			c0.8,8.6-1.4,16-6.7,21.9c-6.1,7-15.5,10.6-27.9,10.6c-3.8,0-9.9,0-18.2-1.6c-3.7-0.7-7.8-1.8-12.4-3.3c-1.2-0.4-2.1-1.3-2.6-2.4
			c-0.1-0.3-0.2-0.6-0.3-0.9c0,0,0,0,0-0.1c-0.1-0.3-0.1-0.6-0.1-0.9v-20.8H101.9z M140.4,1433.5h-15.9h-9c-2.5,0-4.5-2-4.5-4.4
			v-8.1v-4.8c0-2.5,2-4.4,4.5-4.4h0.7v-23.4l-11.8,32.6l-3.5,9.6c-0.6,1.8-2.3,2.9-4.2,2.9h-15c-1.9,0-3.5-1.2-4.2-2.9L74,1421
			l-11.9-32.6v23.4h0.7c2.5,0,4.4,2,4.4,4.4v4.8v8.1c0,2.5-2,4.4-4.4,4.4H37.9c-2.5,0-4.4-2-4.4-4.4v-12.8c0-2.5,2-4.4,4.4-4.4h0.7
			V1357h-0.7c-2.5,0-4.4-2-4.4-4.4v-12.8c0-2.5,2-4.4,4.4-4.4h25.8c1.9,0,3.5,1.2,4.2,2.9l8.7,24l12.5,34.5l12.4-34.1l4.6-12.5
			l3.1-8.4l1.3-3.4c0.6-1.8,2.3-2.9,4.2-2.9h5.6h20.2c2.4,0,4.4,2,4.4,4.4v12.8c0,2.5-2,4.4-4.4,4.4h-0.7v54.9h0.7
			c2.4,0,4.4,2,4.4,4.4v4.7v8.1c0,2.4-1.9,4.4-4.3,4.4C140.5,1433.5,140.4,1433.5,140.4,1433.5z M229.8,1434.1h-18
			c-0.9,0-1.7-0.3-2.4-0.7c-0.9-0.6-1.6-1.4-1.9-2.5l-3.1-10.1l-2.6-8.7h-22.3l-2.6,8.7l-3,10c-0.3,1.1-1,1.9-1.9,2.5
			c-0.7,0.4-1.5,0.7-2.3,0.7h-16.4c-0.8,0-1.6-0.2-2.3-0.7c-1.3-0.8-2.2-2.2-2.2-3.8v-8.7v-4.1c0-2.5,2-4.4,4.4-4.4h2.4l17.1-56.7
			c-1.4-0.8-2.3-2.2-2.3-3.9V1340c0-2.5,2-4.4,4.4-4.4h24.6c2,0,3.7,1.3,4.2,3.2l22.2,73.6h3.9c2.4,0,4.4,2,4.4,4.4v4v8.8
			c0,1.6-0.8,2.9-2,3.7C231.5,1433.9,230.7,1434.1,229.8,1434.1z M301.3,1433.4h-58.4c-0.1,0-0.2,0-0.4,0c-2.3-0.2-4.1-2.1-4.1-4.4
			v-8.1v-4.7c0-2.5,2-4.4,4.4-4.4h0.7v-55.1h-0.7c-2.5,0-4.4-2-4.4-4.4v-12.8c0-2.5,2-4.5,4.4-4.5h25c2.5,0,4.4,2,4.4,4.5v12.8
			c0,2.5-2,4.4-4.4,4.4h-0.7v55.1H284v-5.4c0-2.5,2-4.4,4.4-4.4h12.8c2.5,0,4.4,2,4.4,4.4v14.5v8.2c0,2.2-1.5,3.9-3.6,4.3
			C301.9,1433.4,301.6,1433.4,301.3,1433.4z M345.7,1433.5c-1.9,0-3.9-0.1-5.8-0.2s-3.8-0.3-5.7-0.5c-7-0.9-12.8-3.9-17.4-9.1
			c-0.9-0.9-1.6-1.9-2.3-2.9c-3.2-4.5-4.8-9.7-4.8-15.5v-48.7h-0.6c-2.4,0-4.4-2-4.4-4.4v-12.5c0-2.5,2-4.4,4.4-4.4h24.3
			c2.5,0,4.4,2,4.4,4.4v12.5c0,2.5-2,4.4-4.4,4.4h-0.6v48c0,1.6,0.4,3,1.4,4.3c0.8,1.1,1.7,1.7,2.8,1.9c0.4,0,2.1,0.1,9.1,0.1
			c6.1,0,7.8-0.1,8.3-0.1c1.2-0.3,2.2-1,3-2.1c0.9-1.2,1.3-2.5,1.3-4.1v-48h-0.6c-2.5,0-4.4-2-4.4-4.4v-12.5c0-2.5,2-4.4,4.4-4.4
			h24.3c2.5,0,4.4,2,4.4,4.4v12.5c0,2.5-2,4.4-4.4,4.4h-0.6v48.7c0,5.7-1.6,10.9-4.8,15.4c-0.7,1-1.4,2-2.3,2.9
			c-4.7,5.2-10.5,8.2-17.5,9.1c-1.8,0.2-3.7,0.4-5.5,0.5C349.6,1433.4,347.7,1433.5,345.7,1433.5z M437.1,1433.8
			c-2.8,0-5.5-0.2-8.2-0.6c-10-1.5-18.9-5.6-26.6-12.5c-0.5-0.5-1.1-1-1.6-1.5c-10-9.7-15.1-21.6-15.1-35.4
			c0-13.8,5.1-25.7,15.1-35.4c10-9.7,22.2-14.6,36.4-14.6c3.7,0,7.3,0.4,10.8,1.1c5.3,1.1,10.3,2.9,15,5.6c0.4,0.2,0.8,0.5,1.2,0.7
			c0.8,0.5,1.5,1,2.3,1.5c0.4,0.3,0.8,0.5,1.2,0.8c1.1,0.8,2.1,1.6,3.2,2.5c1.3,0.8,2.1,2.3,2.1,3.8v0.1v12.4v0.1
			c-0.1,2.4-2,4.3-4.4,4.3h-12.9c-2.4,0-4.4-2-4.4-4.4v-3c-4.4-2.2-9-3.2-14-3.2c-8.1,0-14.5,2.6-19.5,8c-4.9,5.3-7.3,11.8-7.3,19.9
			c0,8.1,2.4,14.6,7.3,19.8c5,5.4,11.4,8,19.5,8c5.1,0,9.7-1.1,14-3.2v-3.1c0-2.5,2-4.4,4.4-4.4h12.9c2.4,0,4.4,2,4.4,4.4v12.5
			c0,1-0.4,2-1,2.8c-0.2,0.3-0.5,0.6-0.9,0.8c-9.2,6.5-18.2,10.4-26.9,11.8C441.7,1433.6,439.4,1433.8,437.1,1433.8z M561.8,1429.7
			c0,2.5-2,4.4-4.4,4.4h-17.9c-0.7,0-1.3-0.2-1.9-0.4c-1.1-0.5-2-1.5-2.3-2.7l-3-10l-2.7-8.8h-22.3l-2.5,8.4l-3.1,10.3
			c-0.3,0.9-0.8,1.7-1.5,2.2c-0.8,0.6-1.7,1-2.7,1h-16.4c-1,0-2-0.4-2.7-0.9c-1.1-0.8-1.7-2.1-1.7-3.5v-9v-3.8c0-2.5,2-4.4,4.4-4.4
			h2.4l17.1-56.7c-0.4-0.2-0.7-0.5-1-0.8c-0.8-0.8-1.3-1.9-1.3-3.1V1340c0-0.8,0.2-1.5,0.6-2.2c0.4-0.7,0.9-1.2,1.5-1.6l0.1-0.1
			c0.3-0.1,0.5-0.3,0.8-0.4c0.1,0,0.2-0.1,0.3-0.1c0.4-0.1,0.7-0.1,1.1-0.1H527c2,0,3.7,1.3,4.3,3.2l22.2,73.6h3.9
			c2.5,0,4.4,2,4.4,4.4L561.8,1429.7L561.8,1429.7z"/>
	</g>
</g>
</svg>
